<?xml version="1.0" encoding="utf-8"?>
<!-- Generator: Adobe Illustrator 27.3.1, SVG Export Plug-In . SVG Version: 6.00 Build 0)  -->
<svg version="1.1" id="Ebene_1" xmlns="http://www.w3.org/2000/svg" xmlns:xlink="http://www.w3.org/1999/xlink" x="0px" y="0px"
	 viewBox="0 0 223.58968 60.56038" enable-background="new 0 0 223.58968 60.56038" xml:space="preserve">
<g>
	<path fill="#1A8AB9" d="M187.56761,16.97297h0.83789l0.78223,2.1377h0.0127l0.77344-2.1377h0.84082v3.00879h-0.53125v-2.41797
		h-0.00781l-0.91406,2.41797h-0.37402l-0.90137-2.41797h-0.00781v2.41797h-0.51074V16.97297z"/>
	<path fill="#1A8AB9" d="M193.33617,19.98176h-0.48535v-0.32715H192.843c-0.0459,0.10156-0.12402,0.19141-0.23633,0.26953
		c-0.11133,0.07812-0.24414,0.11719-0.39746,0.11719c-0.13281,0-0.24707-0.02344-0.3418-0.07031s-0.17285-0.1084-0.2334-0.18457
		c-0.06152-0.07715-0.10645-0.16406-0.13477-0.26367s-0.04199-0.20117-0.04199-0.30566v-1.27539h0.50977v1.13086
		c0,0.05957,0.00488,0.12109,0.0127,0.18652c0.00879,0.06543,0.02734,0.12402,0.05566,0.17676
		c0.02832,0.05176,0.06738,0.0957,0.11621,0.12988c0.0498,0.0332,0.11621,0.05078,0.19824,0.05078
		c0.0791,0,0.14941-0.0166,0.20996-0.04883c0.06152-0.0332,0.11035-0.07422,0.14941-0.12598
		c0.03809-0.05078,0.06641-0.10938,0.08691-0.17578c0.01953-0.06641,0.0293-0.13379,0.0293-0.20215v-1.12207h0.51074V19.98176z"/>
	<path fill="#1A8AB9" d="M193.96898,17.94172h0.48438v0.32715h0.00879c0.0459-0.10156,0.12402-0.19141,0.23633-0.26953
		c0.11133-0.07812,0.24414-0.11719,0.39746-0.11719c0.13281,0,0.24707,0.02344,0.3418,0.07031s0.17285,0.1084,0.2334,0.18457
		c0.06152,0.07715,0.10547,0.16504,0.13379,0.26367c0.02832,0.09961,0.04297,0.20117,0.04297,0.30566v1.27539h-0.50978V18.8509
		c0-0.05957-0.00487-0.12109-0.01268-0.18652c-0.00879-0.06543-0.02734-0.12402-0.05566-0.17676
		c-0.02832-0.05176-0.06738-0.0957-0.11719-0.12891c-0.04883-0.03418-0.11523-0.05176-0.19727-0.05176
		s-0.15332,0.0166-0.21289,0.04883c-0.05957,0.0332-0.1084,0.0752-0.14648,0.12598s-0.06738,0.10938-0.08691,0.17578
		c-0.01953,0.06738-0.0293,0.13379-0.0293,0.20215v1.12207h-0.51074V17.94172z"/>
	<path fill="#1A8AB9" d="M196.39964,17.24934c0-0.08203,0.03027-0.1543,0.0918-0.21484
		c0.06055-0.06055,0.1377-0.0918,0.23145-0.0918s0.17188,0.0293,0.23535,0.08789c0.06445,0.05762,0.0957,0.13086,0.0957,0.21875
		s-0.03125,0.16016-0.0957,0.21875c-0.06348,0.05762-0.1416,0.08691-0.23535,0.08691s-0.1709-0.03027-0.23145-0.0918
		C196.42992,17.40266,196.39964,17.33137,196.39964,17.24934z M196.47191,17.94172h0.50977v2.04004h-0.50977V17.94172z"/>
	<path fill="#1A8AB9" d="M199.01781,18.50715c-0.04004-0.05664-0.09961-0.10449-0.17871-0.14258s-0.16016-0.05762-0.24219-0.05762
		c-0.09375,0-0.17578,0.01953-0.24609,0.05762c-0.07129,0.03809-0.12988,0.08887-0.17676,0.15137
		c-0.04688,0.06152-0.08203,0.13184-0.10449,0.20996s-0.03418,0.15625-0.03418,0.23633c0,0.0791,0.0127,0.15723,0.03613,0.23535
		c0.02441,0.07812,0.06055,0.14844,0.1084,0.20996c0.04883,0.0625,0.1084,0.11328,0.18066,0.15137s0.15723,0.05762,0.25293,0.05762
		c0.08008,0,0.15918-0.01562,0.23828-0.04688s0.14355-0.07617,0.19141-0.13574l0.31836,0.32227
		c-0.08496,0.09082-0.19336,0.16113-0.3252,0.21094c-0.13184,0.04883-0.27344,0.07422-0.42676,0.07422
		c-0.15039,0-0.29297-0.02441-0.42676-0.07227c-0.13477-0.04785-0.25293-0.11914-0.35352-0.21289
		c-0.10059-0.09277-0.17969-0.20605-0.2373-0.33984c-0.05859-0.13281-0.08789-0.28418-0.08789-0.4541
		c0-0.16504,0.0293-0.31348,0.08789-0.44629c0.05762-0.13379,0.13672-0.24707,0.23535-0.34082
		c0.09961-0.09277,0.21484-0.16504,0.34668-0.2168c0.13184-0.05078,0.27246-0.07617,0.42285-0.07617
		s0.29492,0.02832,0.43555,0.08496s0.25098,0.13477,0.33398,0.23438L199.01781,18.50715z"/>
	<path fill="#1A8AB9" d="M200.85374,17.88215c0.13379,0,0.24707,0.02344,0.34277,0.07031
		c0.09473,0.04688,0.17285,0.1084,0.2334,0.18457c0.06055,0.07715,0.10547,0.16504,0.13379,0.26367
		c0.02832,0.09961,0.04297,0.20117,0.04297,0.30566v1.27539h-0.51074v-1.12207c0-0.05957-0.00391-0.12109-0.0127-0.18457
		c-0.00781-0.06445-0.02637-0.12207-0.05273-0.1748c-0.02734-0.05176-0.06543-0.0957-0.11523-0.12891
		c-0.04883-0.03418-0.11523-0.05176-0.19727-0.05176s-0.15332,0.01562-0.21289,0.04688
		c-0.05859,0.03125-0.1084,0.07324-0.14844,0.12598c-0.04004,0.05176-0.06934,0.11133-0.08887,0.17578
		c-0.02051,0.06543-0.03027,0.13184-0.03027,0.2002v1.11328h-0.50977v-3.21289h0.50977v1.45801h0.00879
		c0.01953-0.04297,0.04883-0.08496,0.08691-0.12598s0.08301-0.07812,0.13379-0.11035
		c0.05176-0.03223,0.10938-0.05859,0.1748-0.07812C200.70628,17.89192,200.77757,17.88215,200.85374,17.88215z"/>
	<path fill="#1A8AB9" d="M186.73558,24.03157h-1.81445c-0.24121,0-0.45996-0.03418-0.65723-0.10449
		c-0.19629-0.06934-0.36523-0.16992-0.50586-0.30176c-0.13965-0.13184-0.24805-0.29297-0.32422-0.48438
		c-0.07715-0.19141-0.11523-0.4082-0.11523-0.65234c0-0.22949,0.04004-0.43848,0.12109-0.62695s0.19336-0.35059,0.33789-0.48633
		s0.31543-0.24121,0.51172-0.31641c0.19727-0.0752,0.41016-0.11328,0.63965-0.11328s0.44238,0.03809,0.6377,0.11328
		s0.36523,0.18066,0.50781,0.31641c0.14355,0.13574,0.25488,0.29785,0.33398,0.48633s0.11914,0.39746,0.11914,0.62695
		c0,0.13574-0.01562,0.26074-0.04688,0.37402s-0.07129,0.21582-0.12109,0.30859c-0.0498,0.0918-0.10645,0.17285-0.16992,0.24219
		s-0.12988,0.12793-0.19824,0.17578v0.00879h0.74414V24.03157z M184.92894,21.4261c-0.14453,0-0.2793,0.02734-0.40527,0.08105
		s-0.23438,0.12695-0.3252,0.2207s-0.16211,0.20605-0.21484,0.33594c-0.05273,0.13086-0.07812,0.27246-0.07812,0.4248
		c0,0.16211,0.02441,0.30859,0.07422,0.44043c0.04883,0.13184,0.11914,0.24414,0.20801,0.33789
		c0.08887,0.09277,0.19629,0.16602,0.32129,0.21875c0.12402,0.05176,0.26172,0.07812,0.41211,0.07812
		c0.14746,0,0.28418-0.02637,0.41016-0.07812c0.12598-0.05273,0.23438-0.12598,0.3252-0.21875
		c0.08984-0.09375,0.16113-0.20605,0.21191-0.33789s0.07715-0.27832,0.07715-0.44043c0-0.15234-0.02441-0.29395-0.07227-0.4248
		c-0.04883-0.12988-0.11719-0.24219-0.20605-0.33594c-0.08984-0.09375-0.19629-0.16699-0.32129-0.2207
		S185.08226,21.4261,184.92894,21.4261z"/>
	<path fill="#1A8AB9" d="M188.97191,24.03157h-0.48535v-0.32715h-0.00781c-0.0459,0.10156-0.12402,0.19141-0.23633,0.26953
		c-0.11133,0.07812-0.24414,0.11719-0.39746,0.11719c-0.13281,0-0.24707-0.02344-0.3418-0.07031s-0.17285-0.1084-0.2334-0.18457
		c-0.06152-0.07715-0.10645-0.16406-0.13477-0.26367s-0.04199-0.20117-0.04199-0.30566v-1.27539h0.50977v1.13086
		c0,0.05957,0.00488,0.12109,0.0127,0.18652c0.00879,0.06543,0.02734,0.12402,0.05566,0.17676
		c0.02832,0.05176,0.06738,0.0957,0.11621,0.12988c0.0498,0.0332,0.11621,0.05078,0.19824,0.05078
		c0.0791,0,0.14941-0.0166,0.20996-0.04883c0.06152-0.0332,0.11035-0.07422,0.14941-0.12598
		c0.03809-0.05078,0.06641-0.10938,0.08691-0.17578c0.01953-0.06641,0.0293-0.13379,0.0293-0.20215v-1.12207h0.51074V24.03157z"/>
	<path fill="#1A8AB9" d="M190.87132,23.77278h-0.0127c-0.05078,0.08984-0.13281,0.16504-0.24609,0.22266
		s-0.24219,0.08691-0.38672,0.08691c-0.08203,0-0.16797-0.01074-0.25781-0.03125c-0.08887-0.02148-0.1709-0.05664-0.24609-0.10645
		s-0.1377-0.11523-0.18652-0.19531c-0.0498-0.08105-0.0752-0.18066-0.0752-0.2998c0-0.15332,0.04395-0.27539,0.12988-0.36523
		c0.08691-0.09082,0.19727-0.16016,0.33398-0.20898c0.13574-0.04785,0.28711-0.08008,0.45215-0.0957
		c0.16602-0.01562,0.32812-0.02344,0.4873-0.02344v-0.05078c0-0.12695-0.04688-0.22168-0.13867-0.28223
		c-0.0918-0.06152-0.20215-0.0918-0.3291-0.0918c-0.10742,0-0.21094,0.02246-0.31055,0.06836
		c-0.09863,0.04492-0.18164,0.10059-0.24609,0.16602l-0.26367-0.31055c0.11621-0.10742,0.25-0.18848,0.40137-0.24219
		s0.30566-0.08105,0.46094-0.08105c0.18164,0,0.33105,0.02539,0.44824,0.07617c0.11816,0.05176,0.21094,0.11816,0.2793,0.2002
		c0.06738,0.08203,0.11523,0.17383,0.1416,0.27637c0.02734,0.10156,0.04102,0.2041,0.04102,0.30566v1.24121h-0.47656V23.77278z
		 M190.86351,23.1009h-0.11523c-0.08203,0-0.16895,0.00391-0.25879,0.01074c-0.09082,0.00684-0.1748,0.02246-0.25098,0.04688
		c-0.07715,0.02344-0.14062,0.05762-0.19141,0.10156s-0.07617,0.10449-0.07617,0.18066c0,0.04785,0.00977,0.08887,0.03125,0.12109
		s0.04883,0.05859,0.08301,0.0791c0.03418,0.01953,0.07227,0.0332,0.11523,0.04199c0.04199,0.00879,0.08496,0.0127,0.12695,0.0127
		c0.17578,0,0.30859-0.04688,0.39941-0.13965c0.09082-0.09375,0.13672-0.22168,0.13672-0.38281V23.1009z"/>
	<path fill="#1A8AB9" d="M191.9631,21.99153h0.48439v0.32715h0.00879c0.0459-0.10156,0.12402-0.19141,0.23633-0.26953
		c0.11133-0.07812,0.24414-0.11719,0.39746-0.11719c0.13281,0,0.24707,0.02344,0.3418,0.07031s0.17285,0.1084,0.2334,0.18457
		c0.06152,0.07715,0.10547,0.16504,0.13379,0.26367c0.02832,0.09961,0.04297,0.20117,0.04297,0.30566v1.27539h-0.50977v-1.13086
		c0-0.05957-0.00488-0.12109-0.0127-0.18652c-0.00879-0.06543-0.02734-0.12402-0.05566-0.17676
		c-0.02832-0.05176-0.06738-0.0957-0.11719-0.12891c-0.04883-0.03418-0.11523-0.05176-0.19727-0.05176
		s-0.15332,0.0166-0.21289,0.04883c-0.05957,0.0332-0.1084,0.0752-0.14648,0.12598s-0.06738,0.10938-0.08691,0.17578
		c-0.01953,0.06738-0.0293,0.13379-0.0293,0.20215v1.12207h-0.51076V21.99153z"/>
	<path fill="#1A8AB9" d="M194.16527,22.39973v-0.4082h0.35742v-0.59082h0.50098v0.59082h0.50977v0.4082h-0.50977V23.347
		c0,0.09082,0.0166,0.16602,0.04883,0.22559c0.0332,0.05957,0.10547,0.08887,0.21875,0.08887
		c0.03418,0,0.07129-0.00293,0.11035-0.01074c0.04004-0.00684,0.0752-0.01758,0.10645-0.03125l0.01758,0.39941
		c-0.0459,0.0166-0.09961,0.03027-0.16211,0.04004s-0.12109,0.01562-0.17773,0.01562c-0.13672,0-0.24707-0.01953-0.33203-0.05762
		s-0.15234-0.09082-0.20215-0.15723c-0.04883-0.06641-0.08301-0.14355-0.10156-0.22949
		c-0.01855-0.08691-0.02734-0.17969-0.02734-0.27832v-0.95215H194.16527z"/>
	<path fill="#1A8AB9" d="M197.78734,24.03157h-0.48535v-0.32715h-0.00781c-0.0459,0.10156-0.12402,0.19141-0.23633,0.26953
		c-0.11133,0.07812-0.24414,0.11719-0.39746,0.11719c-0.13281,0-0.24707-0.02344-0.3418-0.07031s-0.17285-0.1084-0.2334-0.18457
		c-0.06152-0.07715-0.10645-0.16406-0.13477-0.26367s-0.04199-0.20117-0.04199-0.30566v-1.27539h0.50977v1.13086
		c0,0.05957,0.00488,0.12109,0.0127,0.18652c0.00879,0.06543,0.02734,0.12402,0.05566,0.17676
		c0.02832,0.05176,0.06738,0.0957,0.11621,0.12988c0.0498,0.0332,0.11621,0.05078,0.19824,0.05078
		c0.0791,0,0.14941-0.0166,0.20996-0.04883c0.06152-0.0332,0.11035-0.07422,0.14941-0.12598
		c0.03809-0.05078,0.06641-0.10938,0.08691-0.17578c0.01953-0.06641,0.0293-0.13379,0.0293-0.20215v-1.12207h0.51074V24.03157z"/>
	<path fill="#1A8AB9" d="M200.8557,21.93196c0.13281,0,0.24707,0.02344,0.3418,0.07031
		c0.0957,0.04688,0.17285,0.1084,0.23438,0.18457c0.06055,0.07715,0.10547,0.16504,0.13379,0.26367
		c0.02832,0.09961,0.04199,0.20117,0.04199,0.30566v1.27539h-0.50977v-1.13086c0-0.05957-0.00391-0.12109-0.0127-0.18652
		s-0.02734-0.12402-0.05566-0.17676c-0.02832-0.05176-0.06642-0.0957-0.11621-0.12891
		c-0.0498-0.03418-0.11523-0.05176-0.19824-0.05176c-0.0791,0-0.14648,0.01758-0.20312,0.05176
		c-0.05762,0.0332-0.10352,0.07715-0.14062,0.13086c-0.03711,0.05469-0.06348,0.11426-0.08105,0.18066
		c-0.0166,0.06738-0.02539,0.13281-0.02539,0.19824v1.11328h-0.50977v-1.23242c0-0.12793-0.03027-0.2334-0.0918-0.31641
		c-0.06055-0.08398-0.15625-0.12598-0.28613-0.12598c-0.07715,0-0.14355,0.0166-0.2002,0.04883
		c-0.05664,0.0332-0.10254,0.0752-0.1377,0.12598c-0.03613,0.05078-0.0625,0.10938-0.08105,0.17578
		c-0.01855,0.06738-0.02734,0.13379-0.02734,0.20215v1.12207h-0.51074v-2.04004h0.48438v0.32715h0.00879
		c0.02246-0.05078,0.05371-0.09863,0.0918-0.14453c0.03809-0.04492,0.08299-0.08594,0.13574-0.12305
		c0.05273-0.03711,0.1123-0.06543,0.18066-0.08691s0.14258-0.03223,0.22559-0.03223c0.1582,0,0.29004,0.03516,0.39453,0.10645
		c0.10547,0.07031,0.18555,0.16406,0.24219,0.28027c0.06836-0.12402,0.15918-0.21973,0.27246-0.28711
		C200.56956,21.96516,200.70238,21.93196,200.8557,21.93196z"/>
	<path fill="#1A8AB9" d="M189.91331,25.42317h0.59961l0.8291,2.31641h0.0166l0.83789-2.31641h0.57715l-1.20703,3.00879h-0.46289
		L189.91331,25.42317z"/>
	<path fill="#1A8AB9" d="M194.14671,28.17317h-0.0127c-0.05078,0.08984-0.13281,0.16504-0.24609,0.22266
		s-0.24219,0.08691-0.38672,0.08691c-0.08203,0-0.16797-0.01074-0.25781-0.03125c-0.08887-0.02148-0.1709-0.05664-0.24609-0.10645
		s-0.1377-0.11523-0.18652-0.19531c-0.0498-0.08105-0.0752-0.18066-0.0752-0.2998c0-0.15332,0.04395-0.27539,0.12988-0.36523
		c0.08691-0.09082,0.19727-0.16016,0.33398-0.20898c0.13574-0.04785,0.28711-0.08008,0.45215-0.0957
		c0.16602-0.01562,0.32812-0.02344,0.4873-0.02344v-0.05078c0-0.12695-0.04688-0.22168-0.13867-0.28223
		c-0.0918-0.06152-0.20215-0.0918-0.3291-0.0918c-0.10742,0-0.21094,0.02246-0.31055,0.06836
		c-0.09863,0.04492-0.18164,0.10059-0.24609,0.16602l-0.26367-0.31055c0.11621-0.10742,0.25-0.18848,0.40137-0.24219
		s0.30566-0.08105,0.46092-0.08105c0.18166,0,0.33107,0.02539,0.44826,0.07617c0.11816,0.05176,0.21094,0.11816,0.2793,0.2002
		c0.06738,0.08203,0.11523,0.17383,0.1416,0.27637c0.02734,0.10156,0.04102,0.2041,0.04102,0.30566v1.24121h-0.47656V28.17317z
		 M194.1389,27.50129h-0.11523c-0.08203,0-0.16895,0.00391-0.25879,0.01074c-0.09082,0.00684-0.1748,0.02246-0.25098,0.04688
		c-0.07715,0.02344-0.14062,0.05762-0.19141,0.10156s-0.07617,0.10449-0.07617,0.18066c0,0.04785,0.00977,0.08887,0.03125,0.12109
		s0.04883,0.05859,0.08301,0.0791c0.03418,0.01953,0.07227,0.0332,0.11523,0.04199c0.04199,0.00879,0.08496,0.0127,0.12695,0.0127
		c0.17578,0,0.30859-0.04688,0.39941-0.13965c0.09082-0.09375,0.13672-0.22168,0.13672-0.38281V27.50129z"/>
	<path fill="#1A8AB9" d="M195.24828,25.21907h0.50977v3.21289h-0.50977V25.21907z"/>
	<path fill="#1A8AB9" d="M196.40746,25.21907h0.50977v3.21289h-0.50977V25.21907z"/>
	<path fill="#1A8AB9" d="M199.50609,27.43782c0,0.02246,0,0.04492,0,0.06738c0,0.02344-0.00195,0.0459-0.00488,0.06836h-1.55078
		c0.00586,0.07324,0.02441,0.14062,0.05664,0.20215c0.0332,0.06055,0.07617,0.11328,0.12988,0.15723
		s0.11523,0.07812,0.18262,0.10352c0.06836,0.02539,0.13867,0.03809,0.21289,0.03809c0.12793,0,0.23535-0.02344,0.32324-0.06934
		c0.08789-0.04688,0.16016-0.11133,0.2168-0.19336l0.33984,0.27148c-0.20117,0.27246-0.49316,0.4082-0.87598,0.4082
		c-0.1582,0-0.30469-0.02539-0.4375-0.07422c-0.13281-0.0498-0.24902-0.12012-0.34668-0.21094
		c-0.09766-0.08984-0.17383-0.20117-0.22949-0.33301c-0.05469-0.13184-0.08301-0.28125-0.08301-0.44824
		c0-0.16504,0.02832-0.31445,0.08301-0.44922c0.05566-0.13379,0.13184-0.24902,0.22754-0.34375
		c0.09668-0.09473,0.21094-0.16895,0.34277-0.2207c0.13086-0.05273,0.27344-0.0791,0.42676-0.0791
		c0.1416,0,0.27246,0.02344,0.39258,0.07031c0.12109,0.04688,0.22461,0.11621,0.3125,0.20801s0.15723,0.20703,0.20605,0.34473
		C199.4807,27.09211,199.50609,27.25325,199.50609,27.43782z M198.99535,27.20832c0-0.06543-0.00879-0.12793-0.02734-0.1875
		s-0.04785-0.11133-0.08691-0.15723c-0.04004-0.04492-0.08984-0.08105-0.15137-0.1084
		c-0.06055-0.02637-0.13184-0.04004-0.21387-0.04004c-0.15332,0-0.2832,0.0459-0.38965,0.1377
		c-0.10547,0.09277-0.16504,0.21094-0.17578,0.35547H198.99535z"/>
	<path fill="#1A8AB9" d="M199.7141,26.39192h0.56543l0.56934,1.4834h0.00879l0.50586-1.4834h0.53125l-0.96484,2.47754
		c-0.03711,0.09375-0.07715,0.17676-0.11914,0.24902c-0.04297,0.07227-0.09375,0.13281-0.15332,0.18262
		s-0.12988,0.08691-0.20996,0.1123c-0.08105,0.02539-0.17773,0.03809-0.29102,0.03809c-0.04297,0-0.08594-0.00195-0.12988-0.00586
		s-0.08887-0.01172-0.13379-0.02344l0.04199-0.44238c0.03418,0.01172,0.06738,0.01953,0.10059,0.02344
		c0.03223,0.00488,0.0625,0.00684,0.09082,0.00684c0.05371,0,0.09961-0.00684,0.13574-0.01953
		c0.03711-0.0127,0.06836-0.03223,0.09375-0.05957c0.02539-0.02637,0.04785-0.05957,0.06836-0.09961
		c0.01953-0.04004,0.04102-0.08594,0.06348-0.14062l0.10254-0.25879L199.7141,26.39192z"/>
</g>
<rect x="167.26605" y="13.17691" fill="#1A8AB9" width="0.92126" height="34.19929"/>
<g>
	<g>
		<path fill="#1A8AB9" d="M14.62523,14.62629h3.84131l3.58838,9.80859h0.05811l3.54932-9.80859h3.86084v13.80566h-2.4375v-11.0957
			h-0.03906l-4.19238,11.0957h-1.71582l-4.13428-11.0957h-0.03906v11.0957h-2.33984V14.62629z"/>
		<path fill="#1A8AB9" d="M43.56322,23.36164c0,0.83203-0.14307,1.58301-0.4292,2.25293
			c-0.28613,0.66895-0.67578,1.23828-1.16992,1.70605s-1.0791,0.82812-1.75488,1.08203
			c-0.67627,0.25391-1.41064,0.37988-2.20361,0.37988s-1.52783-0.12598-2.20361-0.37988s-1.26416-0.61426-1.76465-1.08203
			s-0.89062-1.03711-1.16992-1.70605c-0.27979-0.66992-0.41943-1.4209-0.41943-2.25293v-8.73535h2.45703v8.63769
			c0,0.40332,0.05176,0.80371,0.15625,1.2002c0.104,0.39648,0.27588,0.75,0.5166,1.0625
			c0.24023,0.31152,0.55908,0.56543,0.95557,0.76074c0.39648,0.19434,0.88721,0.29199,1.47217,0.29199
			s1.07568-0.09766,1.47217-0.29199c0.39648-0.19531,0.71484-0.44922,0.95557-0.76074c0.24072-0.3125,0.4126-0.66602,0.5166-1.0625
			s0.15625-0.79688,0.15625-1.2002v-8.63769h2.45703V23.36164z"/>
		<path fill="#1A8AB9" d="M46.48802,14.62629h3.25635l6.41553,10.33496h0.03906V14.62629h2.45703v13.80566h-3.12012
			l-6.55176-10.66602h-0.03906v10.66602h-2.45703V14.62629z"/>
		<path fill="#1A8AB9" d="M61.69798,14.62629h2.45703v13.80566h-2.45703V14.62629z"/>
		<path fill="#1A8AB9" d="M82.07542,28.43196h-8.32617c-1.10547,0-2.10938-0.15918-3.01318-0.47754
			c-0.90332-0.31836-1.67676-0.78027-2.32031-1.38477s-1.14062-1.3457-1.4917-2.22266
			c-0.35107-0.87793-0.52637-1.875-0.52637-2.99316c0-1.05371,0.18506-2.01172,0.55566-2.87695
			c0.37061-0.86426,0.88721-1.6084,1.55029-2.23242c0.66309-0.62402,1.4458-1.1084,2.34961-1.45312
			c0.90332-0.34375,1.88184-0.5166,2.93457-0.5166c1.05322,0,2.02832,0.17285,2.92529,0.5166
			c0.89698,0.34473,1.67335,0.8291,2.33009,1.45312c0.65625,0.62402,1.1665,1.36816,1.53076,2.23242
			c0.36377,0.86523,0.5459,1.82324,0.5459,2.87695c0,0.62402-0.07129,1.19629-0.21436,1.71582s-0.32861,0.99121-0.55566,1.41309
			c-0.22754,0.42285-0.48779,0.79395-0.78027,1.1123s-0.59473,0.58789-0.90674,0.80859v0.03906h3.4126V28.43196z M73.78783,16.47883
			c-0.6626,0-1.28369,0.12305-1.8623,0.37012c-0.57812,0.24707-1.07568,0.58496-1.4917,1.01367
			c-0.41602,0.42969-0.74414,0.94336-0.98438,1.54102c-0.24072,0.59766-0.36084,1.24805-0.36084,1.9502
			c0,0.74023,0.11377,1.41309,0.34131,2.01758c0.22705,0.60449,0.5459,1.12109,0.95557,1.55078
			c0.40918,0.42871,0.8999,0.76367,1.47217,1.00391c0.57178,0.24121,1.20215,0.36133,1.8916,0.36133
			c0.67578,0,1.30273-0.12012,1.88135-0.36133c0.57861-0.24023,1.07568-0.5752,1.4917-1.00391
			c0.41602-0.42969,0.74121-0.94629,0.9751-1.55078s0.35107-1.27734,0.35107-2.01758c0-0.70215-0.11036-1.35254-0.33154-1.9502
			c-0.22119-0.59766-0.53613-1.11133-0.9458-1.54102c-0.40918-0.42871-0.90039-0.7666-1.47217-1.01367
			C75.12669,16.60188,74.48997,16.47883,73.78783,16.47883z"/>
		<path fill="#1A8AB9" d="M93.77513,17.86262c-0.36377-0.49316-0.83838-0.85449-1.42334-1.08203s-1.15723-0.34082-1.71582-0.34082
			c-0.71533,0-1.36523,0.12988-1.9502,0.38965s-1.08887,0.61719-1.51123,1.07227c-0.42285,0.45508-0.74756,0.98828-0.9751,1.59961
			s-0.34131,1.27344-0.34131,1.98828c0,0.75488,0.11035,1.44336,0.33154,2.06738s0.53613,1.16016,0.9458,1.6084
			c0.40967,0.44922,0.8999,0.79688,1.47217,1.04395s1.21533,0.37012,1.93066,0.37012c0.74072,0,1.39746-0.14648,1.96924-0.43848
			c0.57227-0.29297,1.03369-0.67969,1.38477-1.16016l1.96924,1.38379c-0.61084,0.76758-1.3584,1.3623-2.24219,1.78418
			c-0.88428,0.42285-1.91797,0.63379-3.10059,0.63379c-1.0791,0-2.07031-0.17871-2.97363-0.53613
			c-0.90381-0.35742-1.68066-0.85742-2.33057-1.50098s-1.15723-1.41016-1.521-2.30078s-0.5459-1.87598-0.5459-2.95508
			c0-1.10449,0.19189-2.10254,0.5752-2.99316c0.3833-0.88965,0.91016-1.64746,1.57959-2.27148
			c0.66943-0.62402,1.45898-1.10449,2.36914-1.44336c0.91016-0.33789,1.89795-0.50684,2.96436-0.50684
			c0.44141,0,0.90332,0.04297,1.38428,0.12695c0.48096,0.08496,0.94238,0.21484,1.38477,0.38965
			c0.44141,0.17578,0.85791,0.39355,1.24756,0.65332c0.39014,0.26074,0.72168,0.57226,0.99463,0.93652L93.77513,17.86262z"/>
		<path fill="#1A8AB9" d="M101.32152,22.81868h-4.68018v-1.98828h4.68018V22.81868z"/>
		<path fill="#1A8AB9" d="M107.95042,14.62629h2.12598l5.94727,13.80566h-2.80762l-1.28711-3.15918h-5.98633l-1.24805,3.15918h-2.75
			L107.95042,14.62629z M111.07054,23.16731l-2.125-5.61621l-2.16504,5.61621H111.07054z"/>
		<path fill="#1A8AB9" d="M115.92601,20.94368v-1.87207h1.6377v-2.70996h2.30078v2.70996h2.34082v1.87207h-2.34082v4.34863
			c0,0.41602,0.0752,0.76074,0.22461,1.0332c0.14941,0.27344,0.48438,0.41016,1.00391,0.41016
			c0.15625,0,0.3252-0.0166,0.50781-0.04883c0.18164-0.03223,0.34375-0.08105,0.4873-0.14648l0.07813,1.83301
			c-0.20801,0.07812-0.45508,0.13965-0.74121,0.18555c-0.28613,0.04492-0.55957,0.06836-0.81934,0.06836
			c-0.62402,0-1.13086-0.08789-1.52051-0.26367c-0.39062-0.17578-0.69922-0.41602-0.92676-0.72168
			c-0.22754-0.30469-0.38379-0.65625-0.46777-1.05273c-0.08496-0.39648-0.12695-0.82227-0.12695-1.27734v-4.36816H115.92601z"/>
		<path fill="#1A8AB9" d="M123.3557,23.71321c0-0.74121,0.13281-1.41406,0.39941-2.01855s0.62695-1.12109,1.08203-1.5498
			c0.45508-0.42969,0.99512-0.76074,1.61914-0.99512c0.62305-0.2334,1.28613-0.35059,1.98828-0.35059
			s1.36523,0.11719,1.98926,0.35059c0.62402,0.23438,1.16309,0.56543,1.61816,0.99512
			c0.45508,0.42871,0.81641,0.94531,1.08301,1.5498c0.26562,0.60449,0.39941,1.27734,0.39941,2.01855
			s-0.13379,1.41699-0.39941,2.02734c-0.2666,0.61133-0.62793,1.13477-1.08301,1.57031s-0.99414,0.77637-1.61816,1.02344
			s-1.28711,0.37109-1.98926,0.37109s-1.36523-0.12402-1.98828-0.37109c-0.62402-0.24707-1.16406-0.58789-1.61914-1.02344
			s-0.81543-0.95898-1.08203-1.57031C123.48851,25.1302,123.3557,24.45442,123.3557,23.71321z M125.7346,23.71321
			c0,0.36426,0.05469,0.72754,0.16504,1.0918s0.27637,0.68945,0.49805,0.97461c0.2207,0.28613,0.5,0.52051,0.83789,0.70215
			c0.33789,0.18262,0.74121,0.27344,1.20898,0.27344s0.87109-0.09082,1.20898-0.27344
			c0.33789-0.18164,0.61719-0.41602,0.83887-0.70215c0.22069-0.28516,0.38672-0.61035,0.49707-0.97461
			s0.16602-0.72754,0.16602-1.0918s-0.05566-0.72461-0.16602-1.08203s-0.27638-0.67969-0.49707-0.96582
			c-0.22168-0.28613-0.50098-0.5166-0.83887-0.69238c-0.33789-0.1748-0.74121-0.2627-1.20898-0.2627
			s-0.87109,0.08789-1.20898,0.2627c-0.33789,0.17578-0.61719,0.40625-0.83789,0.69238
			c-0.22168,0.28613-0.3877,0.6084-0.49805,0.96582S125.7346,23.34895,125.7346,23.71321z"/>
		<path fill="#1A8AB9" d="M146.96898,18.79914c0.61133,0,1.13477,0.10742,1.57031,0.32129
			c0.43555,0.21484,0.79297,0.49707,1.07227,0.84863c0.2793,0.35059,0.48438,0.75391,0.61426,1.20898
			s0.19531,0.92285,0.19531,1.4043v5.84961h-2.33984v-5.18652c0-0.27344-0.01953-0.55957-0.05859-0.8584
			s-0.12402-0.56836-0.25391-0.80957c-0.12988-0.24023-0.30859-0.43848-0.53613-0.59473s-0.53027-0.2334-0.90723-0.2334
			c-0.36328,0-0.67578,0.07715-0.93555,0.2334s-0.47461,0.3584-0.64355,0.60449c-0.16895,0.24707-0.29297,0.52344-0.37012,0.8291
			c-0.07812,0.30566-0.11719,0.60742-0.11719,0.90625v5.10938h-2.33984v-5.65527c0-0.58496-0.14062-1.06934-0.41992-1.45215
			c-0.2793-0.38379-0.71777-0.5752-1.31641-0.5752c-0.35059,0-0.65625,0.07422-0.91602,0.22363s-0.47168,0.3418-0.63379,0.5752
			c-0.16309,0.23438-0.28613,0.50391-0.37012,0.80957c-0.08496,0.30566-0.12695,0.61426-0.12695,0.92578v5.14844h-2.33984v-9.36035
			h2.22266v1.50195h0.03906c0.10352-0.23438,0.24414-0.45508,0.41895-0.66309c0.17578-0.20801,0.38379-0.39648,0.62402-0.56543
			s0.5166-0.30273,0.8291-0.39941c0.31152-0.09766,0.65625-0.14648,1.03319-0.14648c0.72853,0,1.33302,0.16211,1.81349,0.4873
			c0.48145,0.3252,0.85156,0.75391,1.11133,1.28711c0.3125-0.57227,0.72852-1.01074,1.24805-1.31641
			C145.65648,18.95149,146.26781,18.79914,146.96898,18.79914z"/>
		<path fill="#1A8AB9" d="M158.27855,21.5677c-0.20801-0.27246-0.49414-0.50977-0.85742-0.71191
			c-0.36426-0.20117-0.76074-0.30176-1.18945-0.30176c-0.37793,0-0.72168,0.07812-1.03418,0.23438
			c-0.31152,0.15527-0.46777,0.41602-0.46777,0.7793c0,0.36426,0.17188,0.62109,0.5166,0.77051s0.84863,0.30273,1.51172,0.45801
			c0.35059,0.07812,0.70506,0.18262,1.0625,0.3125c0.35742,0.12988,0.68262,0.30176,0.97461,0.5166
			c0.29295,0.21484,0.53027,0.48145,0.71191,0.7998c0.18262,0.31836,0.27344,0.70508,0.27344,1.16016
			c0,0.57227-0.10742,1.05566-0.32227,1.45215c-0.21387,0.39746-0.5,0.71875-0.85742,0.96582
			c-0.3584,0.24707-0.77344,0.42578-1.24805,0.53613s-0.96582,0.16602-1.47266,0.16602c-0.72754,0-1.43652-0.13379-2.125-0.40039
			c-0.68945-0.26562-1.26172-0.64648-1.71582-1.14062l1.54004-1.44336c0.25977,0.33887,0.59766,0.61816,1.01367,0.83887
			c0.41602,0.22168,0.87793,0.33203,1.38477,0.33203c0.16895,0,0.34082-0.01953,0.5166-0.05859s0.33789-0.10059,0.4873-0.18555
			c0.14941-0.08398,0.27051-0.19824,0.36133-0.3418c0.09082-0.14258,0.13672-0.31836,0.13672-0.52637
			c0-0.38965-0.17969-0.66895-0.53711-0.83789s-0.89355-0.33789-1.6084-0.50684c-0.35059-0.07812-0.69238-0.17871-1.02344-0.30273
			c-0.33203-0.12305-0.62793-0.28613-0.8877-0.4873s-0.46777-0.45215-0.62402-0.75098
			c-0.15527-0.29883-0.2334-0.66895-0.2334-1.11133c0-0.51953,0.10645-0.96875,0.32129-1.3457s0.49707-0.68555,0.84863-0.92578
			c0.35059-0.24121,0.74707-0.41992,1.18945-0.53613c0.44141-0.11719,0.89648-0.17578,1.36523-0.17578
			c0.67578,0,1.33496,0.11719,1.97852,0.35059c0.64355,0.23438,1.1543,0.5918,1.53125,1.07227L158.27855,21.5677z"/>
	</g>
</g>
<g>
	<path fill="#1A8AB9" d="M102.41673,34.68733h1.00244l1.97363,3.17969h0.01221v-3.17969h0.75586v4.24805h-0.95996l-2.01611-3.28223
		h-0.01172v3.28223h-0.75635V34.68733z"/>
	<path fill="#1A8AB9" d="M109.92943,37.53108c0,0.03223,0,0.06445,0,0.09668c0,0.03125-0.00244,0.06348-0.00635,0.0957h-2.18994
		c0.0083,0.10352,0.03516,0.19922,0.08105,0.28516s0.10693,0.16016,0.18311,0.22168c0.07568,0.0625,0.16211,0.11133,0.25781,0.14746
		c0.09619,0.03516,0.19629,0.05371,0.30029,0.05371c0.17969,0,0.33203-0.0332,0.45605-0.09863
		c0.12354-0.06641,0.22559-0.15723,0.30566-0.27344l0.47998,0.38379c-0.28369,0.38379-0.6958,0.57617-1.23584,0.57617
		c-0.22412,0-0.43018-0.03516-0.61816-0.10547c-0.18799-0.06934-0.35107-0.16797-0.48877-0.29688
		c-0.13818-0.12793-0.24609-0.28418-0.32422-0.4707c-0.07764-0.18555-0.1167-0.39648-0.1167-0.63281
		c0-0.23242,0.03906-0.44336,0.1167-0.63281c0.07812-0.19043,0.18506-0.35254,0.32129-0.48633
		c0.13574-0.13379,0.29688-0.23828,0.48291-0.31152c0.18604-0.07422,0.38672-0.11133,0.60303-0.11133
		c0.19971,0,0.38477,0.0332,0.55469,0.09863c0.17041,0.06641,0.31738,0.16406,0.44141,0.29395
		c0.12354,0.12988,0.2207,0.29199,0.29102,0.48633C109.89427,37.04475,109.92943,37.27131,109.92943,37.53108z M109.20921,37.20784
		c0-0.09277-0.01318-0.18066-0.03906-0.26465s-0.06689-0.1582-0.12305-0.22168c-0.05615-0.06445-0.12695-0.11523-0.21289-0.15332
		s-0.18701-0.05664-0.30273-0.05664c-0.21631,0-0.39941,0.06445-0.54932,0.19531c-0.1499,0.12988-0.23291,0.29688-0.24902,0.50098
		H109.20921z"/>
	<path fill="#1A8AB9" d="M113.37328,38.93538h-0.68457v-0.46191h-0.01172c-0.06445,0.14355-0.1748,0.27051-0.33301,0.38086
		s-0.34473,0.16504-0.56055,0.16504c-0.18848,0-0.34912-0.0332-0.4834-0.09863c-0.13379-0.06641-0.24365-0.15332-0.32959-0.26172
		c-0.08643-0.10742-0.14941-0.23145-0.18945-0.37207c-0.04004-0.13965-0.05957-0.2832-0.05957-0.43164v-1.7998h0.71973v1.5957
		c0,0.08398,0.00586,0.17188,0.01807,0.26465c0.01221,0.0918,0.03809,0.1748,0.07812,0.24805
		c0.04004,0.07422,0.09473,0.13574,0.16504,0.18359c0.06982,0.04785,0.1626,0.07227,0.27881,0.07227
		c0.11182,0,0.21045-0.02344,0.29639-0.06934s0.15625-0.10547,0.20996-0.17676c0.05469-0.07227,0.0957-0.15527,0.12305-0.24902
		c0.02832-0.09375,0.04199-0.18945,0.04199-0.28516v-1.58398h0.7207V38.93538z"/>
	<path fill="#1A8AB9" d="M113.94261,36.63166v-0.57617h0.50391v-0.83398h0.70801v0.83398h0.71973v0.57617h-0.71973v1.33789
		c0,0.12793,0.02246,0.2334,0.06836,0.31738s0.14941,0.12598,0.30957,0.12598c0.04785,0,0.09961-0.00488,0.15625-0.01465
		c0.05566-0.00977,0.10547-0.02441,0.14941-0.04492l0.02442,0.56445c-0.06445,0.02344-0.14062,0.04297-0.22852,0.05664
		s-0.17188,0.02051-0.25195,0.02051c-0.19141,0-0.34766-0.02637-0.46777-0.08105c-0.12012-0.05371-0.21484-0.12793-0.28516-0.22168
		s-0.11816-0.20215-0.14355-0.32422c-0.02637-0.12207-0.03906-0.25293-0.03906-0.39258v-1.34375H113.94261z"/>
	<path fill="#1A8AB9" d="M116.51683,36.05549h0.68945v0.47949h0.01172c0.08008-0.16797,0.19238-0.30371,0.33691-0.40723
		c0.14355-0.10449,0.31152-0.15625,0.50391-0.15625c0.02734,0,0.05762,0.00098,0.08984,0.00293s0.05957,0.00684,0.08398,0.01465
		v0.66016c-0.04785-0.01172-0.08887-0.01953-0.12305-0.02344s-0.06738-0.00684-0.09961-0.00684
		c-0.16406,0-0.2959,0.03027-0.39551,0.09082c-0.09961,0.05957-0.17773,0.13184-0.23438,0.21582
		c-0.05566,0.08398-0.09375,0.16992-0.11328,0.25781c-0.02051,0.08789-0.03027,0.1582-0.03027,0.20996v1.54199h-0.71973V36.05549z"
		/>
	<path fill="#1A8AB9" d="M120.5305,38.56916h-0.01758c-0.07227,0.12793-0.18848,0.2334-0.34863,0.31543
		s-0.3418,0.12305-0.5459,0.12305c-0.11621,0-0.2373-0.01562-0.36328-0.04492c-0.12598-0.03027-0.24121-0.08008-0.34766-0.15039
		c-0.10547-0.07031-0.19434-0.16211-0.26367-0.27637c-0.07031-0.11328-0.10547-0.25488-0.10547-0.42285
		c0-0.21582,0.06152-0.3877,0.18359-0.51562s0.27832-0.22559,0.4707-0.29395s0.40527-0.11328,0.63867-0.13477
		c0.23438-0.02246,0.46289-0.0332,0.6875-0.0332V37.0633c0-0.17969-0.06543-0.3125-0.19531-0.39941
		c-0.12988-0.08594-0.28516-0.12891-0.46484-0.12891c-0.15234,0-0.29785,0.03223-0.43848,0.09668
		c-0.13965,0.06348-0.25586,0.1416-0.34766,0.2334l-0.37207-0.4375c0.16406-0.15234,0.35352-0.2666,0.56738-0.3418
		c0.21387-0.07617,0.43066-0.11426,0.65039-0.11426c0.25586,0,0.46777,0.03613,0.63379,0.10742
		c0.16504,0.07227,0.29688,0.16602,0.39258,0.28223s0.16309,0.24609,0.20117,0.39062
		c0.03809,0.14355,0.05664,0.28711,0.05664,0.43164v1.75195h-0.67188V38.56916z M120.51878,37.62092h-0.16211
		c-0.11621,0-0.23828,0.00586-0.36621,0.01562s-0.24609,0.03223-0.35352,0.06543c-0.1084,0.03418-0.19824,0.08203-0.27051,0.14453
		c-0.07227,0.06152-0.10742,0.14648-0.10742,0.25488c0,0.06836,0.01465,0.125,0.04492,0.1709
		c0.0293,0.0459,0.06836,0.08301,0.11621,0.11133c0.04883,0.02734,0.10254,0.04785,0.16211,0.05957
		c0.06055,0.01172,0.12012,0.01855,0.18066,0.01855c0.24805,0,0.43555-0.06641,0.56348-0.19824s0.19238-0.3125,0.19238-0.54004
		V37.62092z"/>
	<path fill="#1A8AB9" d="M122.17406,34.39924h0.7207v4.53613h-0.7207V34.39924z"/>
	<path fill="#1A8AB9" d="M126.76976,34.68733h0.6543l1.83008,4.24805h-0.86426l-0.39551-0.97168h-1.8418l-0.38477,0.97168h-0.8457
		L126.76976,34.68733z M127.72972,37.31526l-0.65332-1.72754l-0.66602,1.72754H127.72972z"/>
	<path fill="#1A8AB9" d="M129.34398,36.63166v-0.57617h0.50391v-0.83398h0.70801v0.83398h0.7207v0.57617h-0.7207v1.33789
		c0,0.12793,0.02344,0.2334,0.06934,0.31738s0.14844,0.12598,0.30859,0.12598c0.04785,0,0.10059-0.00488,0.15625-0.01465
		s0.10645-0.02441,0.15039-0.04492l0.02344,0.56445c-0.06348,0.02344-0.13965,0.04297-0.22754,0.05664
		s-0.17188,0.02051-0.25195,0.02051c-0.19238,0-0.34863-0.02637-0.46777-0.08105c-0.12012-0.05371-0.21582-0.12793-0.28516-0.22168
		c-0.07031-0.09375-0.11816-0.20215-0.14453-0.32422c-0.02539-0.12207-0.03906-0.25293-0.03906-0.39258v-1.34375H129.34398z"/>
	<path fill="#1A8AB9" d="M131.75023,37.48323c0-0.22754,0.04102-0.43457,0.12305-0.62109
		c0.08203-0.18555,0.19336-0.34473,0.33301-0.47656s0.30566-0.23438,0.49805-0.30664
		c0.19238-0.07129,0.39551-0.10742,0.6123-0.10742c0.21582,0,0.41992,0.03613,0.61133,0.10742
		c0.19238,0.07227,0.3584,0.1748,0.49805,0.30664c0.14062,0.13184,0.25098,0.29102,0.33301,0.47656
		c0.08203,0.18652,0.12305,0.39355,0.12305,0.62109c0,0.22852-0.04102,0.43652-0.12305,0.62402
		c-0.08203,0.18848-0.19238,0.34961-0.33301,0.4834c-0.13965,0.13379-0.30566,0.23926-0.49805,0.31445
		c-0.19141,0.07617-0.39551,0.11426-0.61133,0.11426c-0.2168,0-0.41992-0.03809-0.6123-0.11426
		c-0.19238-0.0752-0.3584-0.18066-0.49805-0.31445s-0.25098-0.29492-0.33301-0.4834
		C131.79124,37.91975,131.75023,37.71174,131.75023,37.48323z M132.48265,37.48323c0,0.1123,0.0166,0.22461,0.05078,0.33594
		c0.03418,0.1123,0.08496,0.21191,0.15332,0.2998c0.06738,0.08887,0.15332,0.16016,0.25781,0.2168
		c0.10352,0.05566,0.22754,0.08398,0.37207,0.08398c0.14355,0,0.26758-0.02832,0.37207-0.08398
		c0.10352-0.05664,0.18945-0.12793,0.25781-0.2168c0.06738-0.08789,0.11914-0.1875,0.15234-0.2998
		c0.03418-0.11133,0.05176-0.22363,0.05176-0.33594c0-0.11133-0.01758-0.22266-0.05176-0.33301
		c-0.0332-0.10938-0.08496-0.20898-0.15234-0.29688c-0.06836-0.08789-0.1543-0.15918-0.25781-0.21289
		c-0.10449-0.05371-0.22852-0.08105-0.37207-0.08105c-0.14453,0-0.26855,0.02734-0.37207,0.08105
		c-0.10449,0.05371-0.19043,0.125-0.25781,0.21289c-0.06836,0.08789-0.11914,0.1875-0.15332,0.29688
		C132.49925,37.26057,132.48265,37.3719,132.48265,37.48323z"/>
	<path fill="#1A8AB9" d="M139.13597,35.97151c0.18848,0,0.34863,0.0332,0.4834,0.09863
		c0.13379,0.06641,0.24414,0.15332,0.33008,0.26172c0.08594,0.10742,0.14844,0.23145,0.18848,0.37109
		c0.04004,0.14062,0.06055,0.28418,0.06055,0.43262v1.7998h-0.7207v-1.5957c0-0.08398-0.00586-0.17188-0.01758-0.26465
		c-0.01172-0.0918-0.03809-0.1748-0.07812-0.24902c-0.04004-0.07324-0.09473-0.13477-0.16504-0.18262
		s-0.16309-0.07227-0.2793-0.07227c-0.11133,0-0.20801,0.02441-0.28809,0.07227s-0.14551,0.11035-0.19727,0.18555
		c-0.05273,0.07617-0.08984,0.16113-0.11427,0.25586c-0.0244,0.09375-0.03612,0.18652-0.03612,0.27832v1.57227h-0.71973v-1.74023
		c0-0.17969-0.04297-0.3291-0.12891-0.44629c-0.08594-0.11816-0.22168-0.17773-0.40527-0.17773
		c-0.1084,0-0.20215,0.02344-0.28223,0.06934s-0.14453,0.10449-0.19434,0.17676c-0.05078,0.07227-0.08887,0.15527-0.11426,0.24902
		c-0.02637,0.09375-0.03906,0.18945-0.03906,0.28516v1.58398h-0.71973v-2.87988h0.68359v0.46191h0.01172
		c0.03223-0.07227,0.0752-0.13965,0.12891-0.2041c0.05469-0.06348,0.11816-0.12207,0.19238-0.17383s0.15918-0.09277,0.25488-0.12305
		s0.20215-0.04492,0.31836-0.04492c0.22363,0,0.41016,0.0498,0.55762,0.14941c0.14844,0.10059,0.26172,0.23242,0.3418,0.39648
		c0.09668-0.17578,0.22461-0.31055,0.38477-0.40527C138.73167,36.01838,138.92015,35.97151,139.13597,35.97151z"/>
	<path fill="#1A8AB9" d="M143.50999,34.39924v2.02246h0.01855c0.03516-0.04785,0.08203-0.09863,0.1377-0.15039
		s0.12305-0.09961,0.20117-0.14355s0.16895-0.08105,0.27246-0.11133c0.10449-0.03027,0.22266-0.04492,0.35449-0.04492
		c0.2041,0,0.3916,0.03906,0.56348,0.11719s0.32031,0.18457,0.44434,0.32031c0.12402,0.13672,0.21973,0.29688,0.28809,0.48047
		s0.10156,0.38184,0.10156,0.59375s-0.03223,0.41113-0.09863,0.59668c-0.06641,0.18652-0.16016,0.34863-0.28223,0.48633
		s-0.26953,0.24805-0.44336,0.33008c-0.1748,0.08203-0.37109,0.12305-0.5918,0.12305c-0.2041,0-0.39453-0.04395-0.57227-0.13184
		c-0.17871-0.08789-0.31738-0.21582-0.41699-0.38379h-0.0127v0.43164h-0.68359v-4.53613H143.50999z M145.16039,37.48323
		c0-0.11133-0.01758-0.22266-0.05078-0.33301c-0.03418-0.10938-0.08594-0.20898-0.15332-0.29688
		c-0.06836-0.08789-0.1543-0.15918-0.25781-0.21289c-0.10449-0.05371-0.22656-0.08105-0.36621-0.08105
		c-0.13184,0-0.25,0.02832-0.35449,0.08398c-0.10352,0.05566-0.19238,0.12793-0.2666,0.21582s-0.12988,0.18848-0.16797,0.2998
		c-0.03809,0.1123-0.05664,0.22461-0.05664,0.33594c0,0.1123,0.01855,0.22363,0.05664,0.33301
		c0.03809,0.11035,0.09375,0.20996,0.16797,0.29785s0.16309,0.1582,0.2666,0.21289c0.10449,0.05371,0.22266,0.08105,0.35449,0.08105
		c0.13965,0,0.26172-0.02832,0.36621-0.08398c0.10352-0.05664,0.18945-0.12793,0.25781-0.2168
		c0.06738-0.08789,0.11914-0.1875,0.15332-0.2998C145.14281,37.70784,145.16039,37.59553,145.16039,37.48323z"/>
	<path fill="#1A8AB9" d="M148.49632,38.56916h-0.01758c-0.07227,0.12793-0.18848,0.2334-0.34863,0.31543
		s-0.3418,0.12305-0.5459,0.12305c-0.11621,0-0.2373-0.01562-0.36328-0.04492c-0.12598-0.03027-0.24121-0.08008-0.34766-0.15039
		c-0.10547-0.07031-0.19434-0.16211-0.26367-0.27637c-0.07031-0.11328-0.10547-0.25488-0.10547-0.42285
		c0-0.21582,0.06152-0.3877,0.18359-0.51562s0.27832-0.22559,0.4707-0.29395s0.40527-0.11328,0.63867-0.13477
		c0.23438-0.02246,0.46289-0.0332,0.6875-0.0332V37.0633c0-0.17969-0.06543-0.3125-0.19531-0.39941
		c-0.12988-0.08594-0.28516-0.12891-0.46484-0.12891c-0.15234,0-0.29785,0.03223-0.43848,0.09668
		c-0.13965,0.06348-0.25586,0.1416-0.34766,0.2334l-0.37207-0.4375c0.16406-0.15234,0.35352-0.2666,0.56738-0.3418
		c0.21387-0.07617,0.43066-0.11426,0.65039-0.11426c0.25586,0,0.46777,0.03613,0.63379,0.10742
		c0.16504,0.07227,0.29688,0.16602,0.39258,0.28223s0.16309,0.24609,0.20117,0.39062
		c0.03809,0.14355,0.05664,0.28711,0.05664,0.43164v1.75195h-0.67188V38.56916z M148.4846,37.62092h-0.16211
		c-0.11621,0-0.23828,0.00586-0.36621,0.01562s-0.24609,0.03223-0.35352,0.06543c-0.1084,0.03418-0.19824,0.08203-0.27051,0.14453
		c-0.07227,0.06152-0.10742,0.14648-0.10742,0.25488c0,0.06836,0.01465,0.125,0.04492,0.1709
		c0.0293,0.0459,0.06834,0.08301,0.11621,0.11133c0.04883,0.02734,0.10254,0.04785,0.16211,0.05957
		c0.06055,0.01172,0.12012,0.01855,0.18066,0.01855c0.24805,0,0.43555-0.06641,0.56348-0.19824s0.19238-0.3125,0.19238-0.54004
		V37.62092z"/>
	<path fill="#1A8AB9" d="M151.70531,36.82307c-0.06348-0.08398-0.15137-0.15625-0.26367-0.21875
		c-0.1123-0.06152-0.2334-0.09277-0.36621-0.09277c-0.11523,0-0.22168,0.02344-0.31738,0.07227
		c-0.09668,0.04785-0.14453,0.12793-0.14453,0.23926c0,0.1123,0.05371,0.19141,0.15918,0.2373
		c0.10645,0.0459,0.26074,0.09277,0.46484,0.14062c0.1084,0.02441,0.2168,0.05664,0.32715,0.09668s0.20996,0.09277,0.2998,0.15918
		c0.08984,0.06543,0.16309,0.14746,0.21973,0.24512c0.05566,0.09863,0.08398,0.21777,0.08398,0.35742
		c0,0.17578-0.0332,0.3252-0.09961,0.44727c-0.06543,0.12207-0.1543,0.2207-0.26367,0.29688
		c-0.11035,0.07617-0.23828,0.13086-0.38379,0.16504c-0.14648,0.03418-0.29688,0.05078-0.45312,0.05078
		c-0.22461,0-0.44238-0.04102-0.6543-0.12305s-0.3877-0.19922-0.52832-0.35059l0.47461-0.44434
		c0.08008,0.10449,0.18359,0.19043,0.31152,0.25781c0.12793,0.06836,0.27051,0.10254,0.42578,0.10254
		c0.05273,0,0.10547-0.00684,0.15918-0.01855c0.05469-0.01172,0.10449-0.03027,0.15039-0.05664s0.08301-0.06152,0.11133-0.10547
		c0.02734-0.04395,0.04199-0.09766,0.04199-0.16211c0-0.11914-0.05566-0.20508-0.16504-0.25781
		c-0.11035-0.05176-0.27539-0.10352-0.49512-0.15625c-0.1084-0.02344-0.21289-0.05469-0.31543-0.09277
		c-0.10156-0.03809-0.19238-0.08789-0.27246-0.14941c-0.08008-0.0625-0.14453-0.13965-0.19238-0.23145
		s-0.07227-0.20605-0.07227-0.3418c0-0.16016,0.0332-0.29785,0.09961-0.41406c0.06543-0.11621,0.15234-0.21094,0.26074-0.28516
		s0.22949-0.12891,0.36621-0.16504c0.13574-0.03613,0.27539-0.05371,0.41992-0.05371c0.20801,0,0.41113,0.03613,0.6084,0.10742
		c0.19824,0.07227,0.35547,0.18262,0.47168,0.33008L151.70531,36.82307z"/>
	<path fill="#1A8AB9" d="M155.65941,37.53108c0,0.03223,0,0.06445,0,0.09668c0,0.03125-0.00195,0.06348-0.00586,0.0957h-2.18945
		c0.00781,0.10352,0.03516,0.19922,0.08105,0.28516s0.10645,0.16016,0.18262,0.22168
		c0.07617,0.0625,0.16211,0.11133,0.25781,0.14746c0.09668,0.03516,0.19629,0.05371,0.30078,0.05371
		c0.17969,0,0.33203-0.0332,0.45605-0.09863c0.12305-0.06641,0.22559-0.15723,0.30566-0.27344l0.47949,0.38379
		c-0.2832,0.38379-0.69531,0.57617-1.23535,0.57617c-0.22461,0-0.43066-0.03516-0.61816-0.10547
		c-0.18848-0.06934-0.35156-0.16797-0.48926-0.29688c-0.1377-0.12793-0.24609-0.28418-0.32422-0.4707
		c-0.07715-0.18555-0.11621-0.39648-0.11621-0.63281c0-0.23242,0.03906-0.44336,0.11621-0.63281
		c0.07812-0.19043,0.18555-0.35254,0.32129-0.48633s0.29688-0.23828,0.4834-0.31152
		c0.18555-0.07422,0.38672-0.11133,0.60254-0.11133c0.2002,0,0.38477,0.0332,0.55469,0.09863
		c0.1709,0.06641,0.31738,0.16406,0.44141,0.29395s0.2207,0.29199,0.29102,0.48633
		C155.62425,37.04475,155.65941,37.27131,155.65941,37.53108z M154.93968,37.20784c0-0.09277-0.0127-0.18066-0.03906-0.26465
		c-0.02539-0.08398-0.06641-0.1582-0.12305-0.22168c-0.05566-0.06445-0.12695-0.11523-0.21289-0.15332
		s-0.18652-0.05664-0.30273-0.05664c-0.21582,0-0.39941,0.06445-0.54884,0.19531c-0.15038,0.12988-0.23338,0.29688-0.24901,0.50098
		H154.93968z"/>
	<path fill="#1A8AB9" d="M159.40355,38.93538h-0.68457v-0.43164h-0.01172c-0.09961,0.16797-0.23926,0.2959-0.41699,0.38379
		s-0.36914,0.13184-0.57324,0.13184c-0.21973,0-0.41699-0.04102-0.59082-0.12305s-0.32227-0.19238-0.44434-0.33008
		s-0.21582-0.2998-0.28125-0.48633c-0.06641-0.18555-0.09961-0.38477-0.09961-0.59668s0.03418-0.41016,0.10254-0.59375
		c0.06738-0.18359,0.16406-0.34375,0.28809-0.48047c0.12305-0.13574,0.27147-0.24219,0.44336-0.32031
		c0.17188-0.07812,0.36035-0.11719,0.56445-0.11719c0.13184,0,0.25,0.01465,0.35352,0.04492
		c0.10449,0.03027,0.19531,0.06738,0.27344,0.11133s0.14453,0.0918,0.20117,0.14355c0.05566,0.05176,0.10156,0.10254,0.1377,0.15039
		h0.01758v-2.02246h0.7207V38.93538z M157.03343,37.48323c0,0.1123,0.0166,0.22461,0.05078,0.33594
		c0.03418,0.1123,0.08496,0.21191,0.15332,0.2998c0.06738,0.08887,0.15332,0.16016,0.25781,0.2168
		c0.10352,0.05566,0.22559,0.08398,0.36621,0.08398c0.13184,0,0.25-0.02734,0.35352-0.08105
		c0.10449-0.05469,0.19336-0.125,0.26758-0.21289c0.07324-0.08789,0.12988-0.1875,0.16797-0.29785
		c0.03711-0.10938,0.05664-0.2207,0.05664-0.33301c0-0.11133-0.01953-0.22363-0.05664-0.33594
		c-0.03809-0.11133-0.09473-0.21191-0.16797-0.2998c-0.07422-0.08789-0.16309-0.16016-0.26758-0.21582
		c-0.10352-0.05566-0.22168-0.08398-0.35352-0.08398c-0.14062,0-0.2627,0.02734-0.36621,0.08105
		c-0.10449,0.05371-0.19043,0.125-0.25781,0.21289c-0.06836,0.08789-0.11914,0.1875-0.15332,0.29688
		C157.05003,37.26057,157.03343,37.3719,157.03343,37.48323z"/>
	<path fill="#1A8AB9" d="M62.36742,45.93538H59.8054c-0.33984,0-0.64893-0.04883-0.92676-0.14746
		c-0.27832-0.09766-0.51611-0.23926-0.71436-0.42578c-0.19775-0.18555-0.35059-0.41406-0.45898-0.68359
		c-0.10791-0.27051-0.16162-0.57715-0.16162-0.9209c0-0.32422,0.05664-0.61914,0.1709-0.88574
		c0.11377-0.26562,0.27295-0.49414,0.47705-0.68652s0.44482-0.34082,0.72266-0.44727
		c0.27832-0.10547,0.5791-0.15918,0.90332-0.15918c0.32373,0,0.62402,0.05371,0.8999,0.15918
		c0.27588,0.10645,0.51514,0.25488,0.7168,0.44727c0.20215,0.19238,0.35938,0.4209,0.47119,0.68652
		c0.11182,0.2666,0.16797,0.56152,0.16797,0.88574c0,0.19141-0.02197,0.36816-0.06592,0.52734
		c-0.04395,0.16016-0.10107,0.30566-0.1709,0.43555c-0.07031,0.12988-0.1499,0.24414-0.24023,0.3418
		c-0.08984,0.09766-0.18311,0.18066-0.27881,0.24902v0.01172h1.0498V45.93538z M59.81761,42.25764
		c-0.2041,0-0.39502,0.03809-0.57324,0.11328c-0.17773,0.07617-0.33105,0.18066-0.45898,0.3125s-0.229,0.29004-0.30273,0.47363
		c-0.07422,0.18457-0.11133,0.38477-0.11133,0.60059c0,0.22754,0.03516,0.43457,0.10498,0.62109
		c0.07031,0.18555,0.16846,0.34473,0.29443,0.47656s0.27686,0.23535,0.45264,0.30859
		c0.17627,0.07422,0.37012,0.11133,0.58203,0.11133c0.20801,0,0.40088-0.03711,0.5791-0.11133
		c0.17773-0.07324,0.33105-0.17676,0.45898-0.30859s0.22803-0.29102,0.2998-0.47656c0.07227-0.18652,0.1084-0.39355,0.1084-0.62109
		c0-0.21582-0.03418-0.41602-0.10205-0.60059c-0.06836-0.18359-0.16504-0.3418-0.29102-0.47363s-0.27734-0.23633-0.45312-0.3125
		C60.22923,42.29573,60.03343,42.25764,59.81761,42.25764z"/>
	<path fill="#1A8AB9" d="M65.61351,45.93538h-0.68408v-0.46191h-0.01221c-0.06396,0.14355-0.1748,0.27051-0.33301,0.38086
		c-0.15771,0.11035-0.34473,0.16504-0.56055,0.16504c-0.18848,0-0.34912-0.0332-0.4834-0.09863
		c-0.13379-0.06641-0.24365-0.15332-0.32959-0.26172c-0.08643-0.10742-0.14941-0.23145-0.18945-0.37207
		c-0.04004-0.13965-0.05957-0.2832-0.05957-0.43164v-1.7998h0.71973v1.5957c0,0.08398,0.00586,0.17188,0.01807,0.26465
		c0.01221,0.0918,0.03809,0.1748,0.07812,0.24805c0.04004,0.07422,0.09473,0.13574,0.16504,0.18359
		c0.06982,0.04785,0.1626,0.07227,0.27881,0.07227c0.11182,0,0.21094-0.02344,0.29688-0.06934s0.15625-0.10547,0.20996-0.17676
		c0.0542-0.07227,0.09521-0.15527,0.12305-0.24902c0.02832-0.09375,0.04199-0.18945,0.04199-0.28516v-1.58398h0.72021V45.93538z"/>
	<path fill="#1A8AB9" d="M68.38548,45.56916h-0.01807c-0.07227,0.12793-0.18799,0.2334-0.34814,0.31543
		s-0.3418,0.12305-0.5459,0.12305c-0.11621,0-0.2373-0.01562-0.36328-0.04492c-0.12598-0.03027-0.2417-0.08008-0.34766-0.15039
		s-0.19434-0.16211-0.26416-0.27637c-0.06982-0.11328-0.10498-0.25488-0.10498-0.42285c0-0.21582,0.06104-0.3877,0.18311-0.51562
		s0.27881-0.22559,0.4707-0.29395c0.19238-0.06836,0.40527-0.11328,0.63916-0.13477c0.23389-0.02246,0.46289-0.0332,0.68701-0.0332
		V44.0633c0-0.17969-0.06494-0.3125-0.19482-0.39941c-0.13037-0.08594-0.28516-0.12891-0.46534-0.12891
		c-0.15185,0-0.29784,0.03223-0.43798,0.09668c-0.14014,0.06348-0.25586,0.1416-0.34766,0.2334l-0.37207-0.4375
		c0.16406-0.15234,0.35303-0.2666,0.56689-0.3418c0.21387-0.07617,0.43115-0.11426,0.65088-0.11426
		c0.25586,0,0.46729,0.03613,0.6333,0.10742c0.16553,0.07227,0.29688,0.16602,0.39258,0.28223
		c0.09619,0.11621,0.16309,0.24609,0.20117,0.39062c0.03809,0.14355,0.05713,0.28711,0.05713,0.43164v1.75195h-0.67188V45.56916z
		 M68.37328,44.62092h-0.16211c-0.11572,0-0.23779,0.00586-0.36572,0.01562c-0.12842,0.00977-0.24609,0.03223-0.354,0.06543
		c-0.1084,0.03418-0.19824,0.08203-0.27002,0.14453c-0.07227,0.06152-0.10791,0.14648-0.10791,0.25488
		c0,0.06836,0.01465,0.125,0.04492,0.1709c0.02979,0.0459,0.06885,0.08301,0.1167,0.11133
		c0.04834,0.02734,0.10205,0.04785,0.16211,0.05957s0.12012,0.01855,0.18018,0.01855c0.24805,0,0.43555-0.06641,0.56396-0.19824
		c0.12793-0.13184,0.19189-0.3125,0.19189-0.54004V44.62092z"/>
	<path fill="#1A8AB9" d="M70.01683,43.05549h0.68408v0.46191h0.01172c0.06396-0.14355,0.1748-0.27051,0.33301-0.38086
		s0.34521-0.16504,0.56104-0.16504c0.18799,0,0.34912,0.0332,0.48291,0.09863c0.13428,0.06641,0.24414,0.15332,0.33008,0.26172
		c0.08594,0.10742,0.14893,0.23145,0.18896,0.37109c0.04004,0.14062,0.06006,0.28418,0.06006,0.43262v1.7998h-0.72021v-1.5957
		c0-0.08398-0.00586-0.17188-0.01758-0.26465c-0.01221-0.0918-0.03809-0.1748-0.07812-0.24902
		c-0.04004-0.07324-0.09521-0.13477-0.16504-0.18262s-0.16309-0.07227-0.27881-0.07227c-0.11621,0-0.21631,0.02344-0.30029,0.06934
		s-0.15283,0.10449-0.20703,0.17676c-0.05371,0.07227-0.09473,0.15527-0.12305,0.24902
		c-0.02783,0.09375-0.04199,0.18945-0.04199,0.28516v1.58398h-0.71973V43.05549z"/>
	<path fill="#1A8AB9" d="M73.21458,43.63166v-0.57617h0.50391v-0.83398h0.70801v0.83398h0.72021v0.57617H74.4265v1.33789
		c0,0.12793,0.02295,0.2334,0.06885,0.31738s0.14893,0.12598,0.30908,0.12598c0.04785,0,0.1001-0.00488,0.15625-0.01465
		c0.05566-0.00977,0.10596-0.02441,0.1499-0.04492l0.02393,0.56445c-0.06396,0.02344-0.14014,0.04297-0.22803,0.05664
		s-0.17188,0.02051-0.25195,0.02051c-0.19189,0-0.34814-0.02637-0.46777-0.08105c-0.12012-0.05371-0.21533-0.12793-0.28516-0.22168
		c-0.07031-0.09375-0.11816-0.20215-0.14404-0.32422s-0.03906-0.25293-0.03906-0.39258v-1.34375H73.21458z"/>
	<path fill="#1A8AB9" d="M78.41673,45.93538h-0.68408v-0.46191h-0.01221c-0.06396,0.14355-0.1748,0.27051-0.33301,0.38086
		c-0.15771,0.11035-0.34473,0.16504-0.56055,0.16504c-0.18848,0-0.34912-0.0332-0.4834-0.09863
		c-0.13379-0.06641-0.24365-0.15332-0.32959-0.26172c-0.08643-0.10742-0.14941-0.23145-0.18945-0.37207
		c-0.04004-0.13965-0.05957-0.2832-0.05957-0.43164v-1.7998h0.71973v1.5957c0,0.08398,0.00586,0.17188,0.01807,0.26465
		c0.01221,0.0918,0.03809,0.1748,0.07812,0.24805c0.04004,0.07422,0.09473,0.13574,0.16504,0.18359
		c0.06982,0.04785,0.1626,0.07227,0.27881,0.07227c0.11182,0,0.21094-0.02344,0.29688-0.06934s0.15625-0.10547,0.20996-0.17676
		c0.0542-0.07227,0.09521-0.15527,0.12305-0.24902c0.02832-0.09375,0.04199-0.18945,0.04199-0.28516v-1.58398h0.72021V45.93538z"/>
	<path fill="#1A8AB9" d="M82.83861,42.97151c0.18799,0,0.34863,0.0332,0.48291,0.09863
		c0.13379,0.06641,0.24414,0.15332,0.33008,0.26172c0.08594,0.10742,0.14893,0.23145,0.18896,0.37109
		c0.04004,0.14062,0.06006,0.28418,0.06006,0.43262v1.7998H83.1804v-1.5957c0-0.08398-0.00586-0.17188-0.01807-0.26465
		c-0.01172-0.0918-0.03809-0.1748-0.07764-0.24902c-0.04004-0.07324-0.09521-0.13477-0.16504-0.18262
		c-0.07031-0.04785-0.16309-0.07227-0.2793-0.07227c-0.11182,0-0.20801,0.02441-0.28809,0.07227s-0.146,0.11035-0.19775,0.18555
		c-0.05225,0.07617-0.08984,0.16113-0.11426,0.25586c-0.02393,0.09375-0.03564,0.18652-0.03564,0.27832v1.57227h-0.72021v-1.74023
		c0-0.17969-0.04297-0.3291-0.12891-0.44629c-0.08594-0.11816-0.22119-0.17773-0.40479-0.17773
		c-0.1084,0-0.20215,0.02344-0.28223,0.06934s-0.14502,0.10449-0.19482,0.17676c-0.05029,0.07227-0.08838,0.15527-0.11426,0.24902
		s-0.03906,0.18945-0.03906,0.28516v1.58398h-0.71973v-2.87988h0.68408v0.46191h0.01172
		c0.03223-0.07227,0.0752-0.13965,0.12891-0.2041c0.0542-0.06348,0.11816-0.12207,0.19238-0.17383
		c0.07373-0.05176,0.15869-0.09277,0.25488-0.12305c0.0957-0.03027,0.20166-0.04492,0.31787-0.04492
		c0.22412,0,0.41016,0.0498,0.55811,0.14941c0.14795,0.10059,0.26172,0.23242,0.3418,0.39648
		c0.09619-0.17578,0.22412-0.31055,0.38428-0.40527C82.43431,43.01838,82.6223,42.97151,82.83861,42.97151z"/>
	<path fill="#1A8AB9" d="M89.58226,42.68342c-0.1123-0.15234-0.2583-0.2627-0.43799-0.33301
		c-0.18018-0.07031-0.35645-0.10547-0.52832-0.10547c-0.21973,0-0.41992,0.04004-0.6001,0.12012
		c-0.17969,0.08008-0.33496,0.19043-0.46484,0.33008c-0.12988,0.14062-0.22998,0.30469-0.2998,0.49219
		c-0.07031,0.18848-0.10498,0.39258-0.10498,0.6123c0,0.23145,0.03369,0.44336,0.10205,0.63574
		c0.06787,0.19238,0.16504,0.35742,0.29102,0.49512s0.27686,0.24512,0.45264,0.32129
		c0.17627,0.0752,0.37402,0.11328,0.59424,0.11328c0.22803,0,0.42969-0.04492,0.60596-0.13477
		c0.17578-0.08984,0.31787-0.20898,0.42578-0.35645l0.60596,0.42578c-0.18799,0.23535-0.41797,0.41895-0.68994,0.54883
		s-0.58984,0.19531-0.95361,0.19531c-0.33252,0-0.63721-0.05566-0.91504-0.16504c-0.27832-0.11035-0.51709-0.26465-0.71729-0.46191
		c-0.2002-0.19824-0.35596-0.43457-0.46777-0.70801c-0.1123-0.27441-0.16797-0.57715-0.16797-0.90918
		c0-0.33984,0.05859-0.64746,0.17676-0.9209c0.11816-0.27441,0.27979-0.50781,0.48584-0.69922
		c0.20605-0.19238,0.44922-0.33984,0.729-0.44434c0.28027-0.10352,0.58398-0.15625,0.91211-0.15625
		c0.13623,0,0.27832,0.01367,0.42627,0.03906c0.14795,0.02637,0.29004,0.06641,0.42578,0.12012
		c0.13623,0.05469,0.26416,0.12109,0.38428,0.20117c0.11963,0.08008,0.22168,0.17578,0.30566,0.28809L89.58226,42.68342z"/>
	<path fill="#1A8AB9" d="M90.53636,44.48323c0-0.22754,0.04102-0.43457,0.12305-0.62109
		c0.08154-0.18555,0.19287-0.34473,0.33301-0.47656c0.13965-0.13184,0.30566-0.23438,0.49756-0.30664
		c0.19238-0.07129,0.396-0.10742,0.6123-0.10742c0.21582,0,0.41992,0.03613,0.61182,0.10742
		c0.19189,0.07227,0.35791,0.1748,0.49805,0.30664s0.25097,0.29102,0.33301,0.47656
		c0.08203,0.18652,0.12305,0.39355,0.12305,0.62109c0,0.22852-0.04102,0.43652-0.12305,0.62402
		c-0.08204,0.18848-0.19287,0.34961-0.33301,0.4834s-0.30615,0.23926-0.49805,0.31445
		c-0.19189,0.07617-0.396,0.11426-0.61182,0.11426c-0.21631,0-0.41992-0.03809-0.6123-0.11426
		c-0.19189-0.0752-0.35791-0.18066-0.49756-0.31445c-0.14014-0.13379-0.25146-0.29492-0.33301-0.4834
		C90.57738,44.91975,90.53636,44.71174,90.53636,44.48323z M91.2683,44.48323c0,0.1123,0.01709,0.22461,0.05078,0.33594
		c0.03418,0.1123,0.08496,0.21191,0.15332,0.2998c0.06787,0.08887,0.15381,0.16016,0.25781,0.2168
		c0.104,0.05566,0.22803,0.08398,0.37207,0.08398s0.26807-0.02832,0.37207-0.08398c0.104-0.05664,0.18994-0.12793,0.25781-0.2168
		c0.06787-0.08789,0.11914-0.1875,0.15283-0.2998c0.03418-0.11133,0.05127-0.22363,0.05127-0.33594
		c0-0.11133-0.01709-0.22266-0.05127-0.33301c-0.03369-0.10938-0.08496-0.20898-0.15283-0.29688s-0.15381-0.15918-0.25781-0.21289
		s-0.22803-0.08105-0.37207-0.08105s-0.26807,0.02734-0.37207,0.08105s-0.18994,0.125-0.25781,0.21289
		c-0.06836,0.08789-0.11914,0.1875-0.15332,0.29688C91.28539,44.26057,91.2683,44.3719,91.2683,44.48323z"/>
	<path fill="#1A8AB9" d="M97.9221,42.97151c0.18799,0,0.34863,0.0332,0.48291,0.09863
		c0.13379,0.06641,0.24414,0.15332,0.33008,0.26172c0.08594,0.10742,0.14893,0.23145,0.18896,0.37109
		c0.04004,0.14062,0.06006,0.28418,0.06006,0.43262v1.7998H98.2639v-1.5957c0-0.08398-0.00586-0.17188-0.01807-0.26465
		c-0.01172-0.0918-0.03809-0.1748-0.07764-0.24902c-0.04004-0.07324-0.09521-0.13477-0.16504-0.18262
		c-0.07031-0.04785-0.16309-0.07227-0.2793-0.07227c-0.11182,0-0.20801,0.02441-0.28809,0.07227s-0.146,0.11035-0.19775,0.18555
		c-0.05225,0.07617-0.08984,0.16113-0.11426,0.25586c-0.02393,0.09375-0.03565,0.18652-0.03565,0.27832v1.57227H96.3679v-1.74023
		c0-0.17969-0.04297-0.3291-0.12891-0.44629c-0.08594-0.11816-0.22119-0.17773-0.40479-0.17773
		c-0.1084,0-0.20215,0.02344-0.28223,0.06934s-0.14502,0.10449-0.19482,0.17676c-0.05029,0.07227-0.08838,0.15527-0.11426,0.24902
		s-0.03906,0.18945-0.03906,0.28516v1.58398h-0.71973v-2.87988h0.68408v0.46191h0.01172
		c0.03223-0.07227,0.0752-0.13965,0.12891-0.2041c0.0542-0.06348,0.11816-0.12207,0.19238-0.17383
		c0.07373-0.05176,0.15869-0.09277,0.25488-0.12305c0.0957-0.03027,0.20166-0.04492,0.31787-0.04492
		c0.22412,0,0.41016,0.0498,0.55811,0.14941c0.14795,0.10059,0.26172,0.23242,0.3418,0.39648
		c0.09619-0.17578,0.22412-0.31055,0.38428-0.40527C97.51781,43.01838,97.7058,42.97151,97.9221,42.97151z"/>
	<path fill="#1A8AB9" d="M100.63353,43.05549v0.40234h0.01807c0.03564-0.05664,0.08301-0.11328,0.14062-0.17188
		c0.05811-0.05762,0.12939-0.10938,0.21338-0.15527s0.17871-0.08398,0.28467-0.11426s0.2251-0.04492,0.35742-0.04492
		c0.20361,0,0.3916,0.03906,0.56396,0.11719c0.17188,0.07812,0.31982,0.18457,0.44385,0.32031
		c0.12402,0.13672,0.21973,0.29688,0.28809,0.48047c0.06787,0.18359,0.10205,0.38184,0.10205,0.59375
		s-0.0332,0.41113-0.09912,0.59668c-0.06592,0.18652-0.16016,0.34863-0.28223,0.48633s-0.27002,0.24805-0.44385,0.33008
		s-0.37109,0.12305-0.59082,0.12305c-0.2041,0-0.39111-0.04199-0.56104-0.12598c-0.17041-0.08398-0.30127-0.19824-0.39307-0.3418
		h-0.01221v1.82422h-0.71973v-4.32031H100.63353z M102.31322,44.48323c0-0.11133-0.0166-0.22266-0.05078-0.33301
		c-0.03418-0.10938-0.08496-0.20898-0.15283-0.29688c-0.06836-0.08789-0.1543-0.15918-0.2583-0.21289
		s-0.22607-0.08105-0.36572-0.08105c-0.13232,0-0.25,0.02832-0.354,0.08398s-0.19336,0.12793-0.26709,0.21582
		c-0.07422,0.08789-0.12988,0.18848-0.16797,0.2998c-0.03809,0.1123-0.05713,0.22461-0.05713,0.33594
		c0,0.1123,0.01904,0.22363,0.05713,0.33301c0.03809,0.11035,0.09375,0.20996,0.16797,0.29785
		c0.07373,0.08789,0.16309,0.1582,0.26709,0.21289c0.104,0.05371,0.22168,0.08105,0.354,0.08105
		c0.13965,0,0.26172-0.02832,0.36572-0.08398c0.104-0.05664,0.18994-0.12793,0.2583-0.2168
		c0.06787-0.08789,0.11865-0.1875,0.15283-0.2998C102.29662,44.70784,102.31322,44.59553,102.31322,44.48323z"/>
	<path fill="#1A8AB9" d="M106.48949,45.93538h-0.68408v-0.46191h-0.01221c-0.06396,0.14355-0.1748,0.27051-0.33301,0.38086
		c-0.15771,0.11035-0.34473,0.16504-0.56055,0.16504c-0.18848,0-0.34912-0.0332-0.4834-0.09863
		c-0.13379-0.06641-0.24365-0.15332-0.32959-0.26172c-0.08643-0.10742-0.14941-0.23145-0.18945-0.37207
		c-0.04004-0.13965-0.05957-0.2832-0.05957-0.43164v-1.7998h0.71973v1.5957c0,0.08398,0.00586,0.17188,0.01807,0.26465
		c0.01221,0.0918,0.03809,0.1748,0.07812,0.24805c0.04004,0.07422,0.09473,0.13574,0.16504,0.18359
		c0.06982,0.04785,0.1626,0.07227,0.27881,0.07227c0.11182,0,0.21094-0.02344,0.29688-0.06934s0.15625-0.10547,0.20996-0.17676
		c0.0542-0.07227,0.09521-0.15527,0.12305-0.24902c0.02832-0.09375,0.04199-0.18945,0.04199-0.28516v-1.58398h0.72021V45.93538z"/>
	<path fill="#1A8AB9" d="M107.05931,43.63166v-0.57617h0.50391v-0.83398h0.70801v0.83398h0.72021v0.57617h-0.72021v1.33789
		c0,0.12793,0.02295,0.2334,0.06885,0.31738s0.14893,0.12598,0.30908,0.12598c0.04785,0,0.1001-0.00488,0.15625-0.01465
		c0.05566-0.00977,0.10596-0.02441,0.1499-0.04492l0.02393,0.56445c-0.06396,0.02344-0.14014,0.04297-0.22803,0.05664
		s-0.17188,0.02051-0.25195,0.02051c-0.19189,0-0.34814-0.02637-0.46777-0.08105c-0.12012-0.05371-0.21533-0.12793-0.28516-0.22168
		c-0.07031-0.09375-0.11816-0.20215-0.14404-0.32422s-0.03906-0.25293-0.03906-0.39258v-1.34375H107.05931z"/>
	<path fill="#1A8AB9" d="M109.5432,42.07698c0-0.11523,0.04297-0.2168,0.12939-0.30273
		c0.08594-0.08594,0.19482-0.12891,0.32666-0.12891c0.13232,0,0.24316,0.04102,0.33301,0.12305
		c0.09033,0.08203,0.13525,0.18457,0.13525,0.30859s-0.04492,0.22754-0.13525,0.30957
		c-0.08984,0.08203-0.20068,0.12305-0.33301,0.12305c-0.13184,0-0.24072-0.04297-0.32666-0.12891
		C109.58617,42.29475,109.5432,42.19319,109.5432,42.07698z M109.64525,43.05549h0.72021v2.87988h-0.72021V43.05549z"/>
	<path fill="#1A8AB9" d="M111.36107,43.05549h0.68408v0.46191h0.01172c0.06348-0.14355,0.1748-0.27051,0.33301-0.38086
		s0.34473-0.16504,0.56055-0.16504c0.18848,0,0.34961,0.0332,0.4834,0.09863c0.13379,0.06641,0.24414,0.15332,0.33008,0.26172
		c0.08594,0.10742,0.14844,0.23145,0.18848,0.37109c0.04004,0.14062,0.06055,0.28418,0.06055,0.43262v1.7998h-0.7207v-1.5957
		c0-0.08398-0.00586-0.17188-0.01758-0.26465c-0.01172-0.0918-0.03809-0.1748-0.07812-0.24902
		c-0.04004-0.07324-0.09473-0.13477-0.16504-0.18262c-0.06934-0.04785-0.16309-0.07227-0.27832-0.07227
		c-0.11621,0-0.2168,0.02344-0.30078,0.06934s-0.15234,0.10449-0.20703,0.17676c-0.05371,0.07227-0.09473,0.15527-0.12305,0.24902
		c-0.02734,0.09375-0.04199,0.18945-0.04199,0.28516v1.58398h-0.71924V43.05549z"/>
	<path fill="#1A8AB9" d="M117.90062,43.05549v2.62207c0,0.25977-0.03223,0.49512-0.0957,0.70508
		c-0.06445,0.20996-0.16309,0.3877-0.29785,0.53418c-0.13379,0.14551-0.30273,0.25879-0.50684,0.33887
		s-0.44531,0.12012-0.72559,0.12012c-0.11621,0-0.23926-0.01074-0.36914-0.03027c-0.12988-0.02051-0.25781-0.0498-0.38379-0.08984
		s-0.24707-0.08984-0.36328-0.15039c-0.11621-0.05957-0.21973-0.12793-0.31152-0.2041l0.41406-0.55762
		c0.13965,0.13184,0.29785,0.23242,0.47363,0.30273s0.35351,0.10547,0.53418,0.10547c0.17188,0,0.31641-0.02539,0.43457-0.07617
		c0.11816-0.0498,0.21191-0.11914,0.28223-0.20703c0.07031-0.08887,0.12012-0.19336,0.15039-0.31348
		c0.0293-0.12012,0.04492-0.25293,0.04492-0.39746V45.5467h-0.0127c-0.10352,0.1416-0.23633,0.25-0.39844,0.32422
		c-0.16211,0.0752-0.34375,0.1123-0.54297,0.1123c-0.21582,0-0.41211-0.04004-0.58789-0.12012
		c-0.17676-0.08008-0.3252-0.1875-0.44727-0.32422c-0.12207-0.13574-0.2168-0.29492-0.28516-0.47656
		c-0.06837-0.18164-0.10156-0.375-0.10156-0.5791c0-0.20801,0.03223-0.4043,0.09863-0.58789s0.16016-0.34375,0.28223-0.47949
		c0.12207-0.13672,0.26953-0.24414,0.44336-0.32422c0.1748-0.08008,0.36914-0.12012,0.58496-0.12012
		c0.2041,0,0.39453,0.04199,0.57031,0.12598s0.31641,0.21387,0.41992,0.38965h0.01172v-0.43164H117.90062z M116.36449,43.5594
		c-0.13184,0-0.24902,0.02441-0.35059,0.07227c-0.10254,0.04688-0.18848,0.1123-0.25879,0.19434
		c-0.06934,0.08105-0.12402,0.17773-0.16113,0.29004c-0.03809,0.11133-0.05762,0.23047-0.05762,0.3584
		c0,0.11523,0.01953,0.22754,0.05762,0.33496c0.03711,0.10742,0.0918,0.2041,0.16113,0.29004
		c0.07031,0.08594,0.15625,0.1543,0.25879,0.20605c0.10156,0.05176,0.2168,0.07812,0.34473,0.07812
		c0.13184,0,0.25098-0.02539,0.35645-0.0752c0.10645-0.0498,0.19629-0.11621,0.27051-0.2002s0.13086-0.18066,0.1709-0.29004
		s0.05957-0.22461,0.05957-0.34375c0-0.12402-0.01953-0.24121-0.05957-0.35254c-0.04004-0.1123-0.09668-0.20996-0.1709-0.29297
		c-0.07422-0.08398-0.16309-0.15039-0.2666-0.19727C116.61449,43.58381,116.49632,43.5594,116.36449,43.5594z"/>
	<path fill="#1A8AB9" d="M120.54027,41.68733h1.50684c0.27539,0,0.55371,0.03613,0.83398,0.1084
		c0.2793,0.07129,0.53125,0.19043,0.75586,0.35645c0.22363,0.16602,0.40527,0.38379,0.5459,0.6543
		c0.13965,0.26953,0.20996,0.60449,0.20996,1.00488c0,0.37207-0.07031,0.69238-0.20996,0.95996
		c-0.14062,0.26855-0.32227,0.48828-0.5459,0.66016c-0.22461,0.17188-0.47656,0.29883-0.75586,0.38086
		c-0.28027,0.08203-0.55859,0.12305-0.83398,0.12305h-1.50684V41.68733z M121.92699,45.27522
		c0.19531,0,0.3916-0.02246,0.58789-0.06836c0.19531-0.04688,0.37305-0.12402,0.53125-0.23438
		c0.15723-0.11035,0.28613-0.25879,0.38672-0.44727c0.09961-0.1875,0.14941-0.42578,0.14941-0.71387
		c0-0.30371-0.0498-0.55176-0.14941-0.74414c-0.10059-0.19141-0.22949-0.3418-0.38672-0.4502
		c-0.1582-0.10742-0.33594-0.18164-0.53125-0.22168c-0.19629-0.04004-0.39258-0.05957-0.58789-0.05957h-0.62988v2.93945H121.92699z"
		/>
	<path fill="#1A8AB9" d="M127.95628,44.53108c0,0.03223,0,0.06445,0,0.09668c0,0.03125-0.00195,0.06348-0.00586,0.0957h-2.19043
		c0.00879,0.10352,0.03516,0.19922,0.08105,0.28516s0.10742,0.16016,0.18359,0.22168c0.0752,0.0625,0.16211,0.11133,0.25781,0.14746
		c0.0957,0.03516,0.19629,0.05371,0.2998,0.05371c0.17969,0,0.33203-0.0332,0.45605-0.09863
		c0.12402-0.06641,0.22559-0.15723,0.30566-0.27344l0.48047,0.38379c-0.28418,0.38379-0.69629,0.57617-1.23634,0.57617
		c-0.22363,0-0.42968-0.03516-0.61816-0.10547c-0.1875-0.06934-0.35059-0.16797-0.48828-0.29688
		c-0.13867-0.12793-0.24609-0.28418-0.32422-0.4707c-0.07812-0.18555-0.11719-0.39648-0.11719-0.63281
		c0-0.23242,0.03906-0.44336,0.11719-0.63281c0.07812-0.19043,0.18457-0.35254,0.32129-0.48633
		c0.13574-0.13379,0.29688-0.23828,0.48242-0.31152c0.18652-0.07422,0.38672-0.11133,0.60352-0.11133
		c0.19922,0,0.38477,0.0332,0.55469,0.09863c0.16992,0.06641,0.31738,0.16406,0.44141,0.29395
		c0.12305,0.12988,0.2207,0.29199,0.29102,0.48633C127.92113,44.04475,127.95628,44.27131,127.95628,44.53108z M127.23656,44.20784
		c0-0.09277-0.01367-0.18066-0.03906-0.26465c-0.02637-0.08398-0.06738-0.1582-0.12305-0.22168
		c-0.05664-0.06445-0.12695-0.11523-0.21289-0.15332s-0.1875-0.05664-0.30273-0.05664c-0.2168,0-0.39941,0.06445-0.5498,0.19531
		c-0.14941,0.12988-0.23242,0.29688-0.24902,0.50098H127.23656z"/>
	<path fill="#1A8AB9" d="M132.21019,42.97151c0.18848,0,0.34863,0.0332,0.4834,0.09863
		c0.13379,0.06641,0.24414,0.15332,0.33008,0.26172c0.08594,0.10742,0.14844,0.23145,0.18848,0.37109
		c0.04004,0.14062,0.06055,0.28418,0.06055,0.43262v1.7998h-0.7207v-1.5957c0-0.08398-0.00586-0.17188-0.01758-0.26465
		c-0.01172-0.0918-0.03809-0.1748-0.07812-0.24902c-0.04004-0.07324-0.09473-0.13477-0.16504-0.18262
		s-0.16309-0.07227-0.2793-0.07227c-0.11133,0-0.20801,0.02441-0.28809,0.07227s-0.14551,0.11035-0.19727,0.18555
		c-0.05273,0.07617-0.08984,0.16113-0.11426,0.25586c-0.02441,0.09375-0.03613,0.18652-0.03613,0.27832v1.57227h-0.71973v-1.74023
		c0-0.17969-0.04297-0.3291-0.12891-0.44629c-0.08594-0.11816-0.22168-0.17773-0.40527-0.17773
		c-0.1084,0-0.20215,0.02344-0.28223,0.06934s-0.14453,0.10449-0.19434,0.17676c-0.05078,0.07227-0.08887,0.15527-0.11426,0.24902
		c-0.02637,0.09375-0.03906,0.18945-0.03906,0.28516v1.58398h-0.71973v-2.87988h0.68359v0.46191h0.01172
		c0.03223-0.07227,0.0752-0.13965,0.12891-0.2041c0.05469-0.06348,0.11816-0.12207,0.19238-0.17383s0.15918-0.09277,0.25488-0.12305
		s0.20215-0.04492,0.31836-0.04492c0.22363,0,0.41016,0.0498,0.55762,0.14941c0.14844,0.10059,0.26172,0.23242,0.3418,0.39648
		c0.09668-0.17578,0.22461-0.31055,0.38477-0.40527C131.80589,43.01838,131.99437,42.97151,132.21019,42.97151z"/>
	<path fill="#1A8AB9" d="M134.06468,44.48323c0-0.22754,0.04102-0.43457,0.12305-0.62109
		c0.08105-0.18555,0.19238-0.34473,0.33301-0.47656c0.13965-0.13184,0.30566-0.23438,0.49707-0.30664
		c0.19238-0.07129,0.39648-0.10742,0.6123-0.10742s0.41992,0.03613,0.6123,0.10742c0.19141,0.07227,0.35742,0.1748,0.49805,0.30664
		c0.13965,0.13184,0.25098,0.29102,0.33301,0.47656c0.08203,0.18652,0.12305,0.39355,0.12305,0.62109
		c0,0.22852-0.04102,0.43652-0.12305,0.62402c-0.08203,0.18848-0.19336,0.34961-0.33301,0.4834
		c-0.14062,0.13379-0.30664,0.23926-0.49805,0.31445c-0.19238,0.07617-0.39648,0.11426-0.6123,0.11426
		s-0.41992-0.03809-0.6123-0.11426c-0.19141-0.0752-0.35742-0.18066-0.49707-0.31445
		c-0.14062-0.13379-0.25195-0.29492-0.33301-0.4834C134.1057,44.91975,134.06468,44.71174,134.06468,44.48323z M134.79613,44.48323
		c0,0.1123,0.01758,0.22461,0.05078,0.33594c0.03418,0.1123,0.08496,0.21191,0.15332,0.2998
		c0.06836,0.08887,0.1543,0.16016,0.25781,0.2168c0.10449,0.05566,0.22852,0.08398,0.37207,0.08398
		c0.14453,0,0.26855-0.02832,0.37207-0.08398c0.10449-0.05664,0.19043-0.12793,0.25781-0.2168
		c0.06836-0.08789,0.11914-0.1875,0.15332-0.2998c0.03418-0.11133,0.05078-0.22363,0.05078-0.33594
		c0-0.11133-0.0166-0.22266-0.05078-0.33301c-0.03418-0.10938-0.08496-0.20898-0.15332-0.29688
		c-0.06738-0.08789-0.15332-0.15918-0.25781-0.21289c-0.10352-0.05371-0.22754-0.08105-0.37207-0.08105
		c-0.14355,0-0.26758,0.02734-0.37207,0.08105c-0.10352,0.05371-0.18945,0.125-0.25781,0.21289s-0.11914,0.1875-0.15332,0.29688
		C134.81371,44.26057,134.79613,44.3719,134.79613,44.48323z"/>
	<path fill="#1A8AB9" d="M138.01292,43.05549h0.68359v0.46191h0.01172c0.06445-0.14355,0.1748-0.27051,0.33301-0.38086
		s0.3457-0.16504,0.56152-0.16504c0.1875,0,0.34863,0.0332,0.48242,0.09863c0.13477,0.06641,0.24414,0.15332,0.33008,0.26172
		c0.08594,0.10742,0.14941,0.23145,0.18945,0.37109c0.04004,0.14062,0.05957,0.28418,0.05957,0.43262v1.7998h-0.71973v-1.5957
		c0-0.08398-0.00586-0.17188-0.01758-0.26465c-0.0127-0.0918-0.03809-0.1748-0.07812-0.24902
		c-0.04004-0.07324-0.0957-0.13477-0.16504-0.18262c-0.07031-0.04785-0.16309-0.07227-0.2793-0.07227
		s-0.21582,0.02344-0.2998,0.06934s-0.15332,0.10449-0.20703,0.17676s-0.09473,0.15527-0.12305,0.24902
		s-0.04199,0.18945-0.04199,0.28516v1.58398h-0.71973V43.05549z"/>
	<path fill="#1A8AB9" d="M143.2014,43.82307c-0.06348-0.08398-0.15137-0.15625-0.26367-0.21875
		c-0.1123-0.06152-0.2334-0.09277-0.36621-0.09277c-0.11523,0-0.22168,0.02344-0.31738,0.07227
		c-0.09668,0.04785-0.14453,0.12793-0.14453,0.23926c0,0.1123,0.05371,0.19141,0.15918,0.2373
		c0.10645,0.0459,0.26074,0.09277,0.46484,0.14062c0.1084,0.02441,0.2168,0.05664,0.32715,0.09668s0.20996,0.09277,0.2998,0.15918
		c0.08984,0.06543,0.16309,0.14746,0.21973,0.24512c0.05566,0.09863,0.08398,0.21777,0.08398,0.35742
		c0,0.17578-0.0332,0.3252-0.09961,0.44727c-0.06543,0.12207-0.1543,0.2207-0.26367,0.29688
		c-0.11035,0.07617-0.23828,0.13086-0.38379,0.16504c-0.14648,0.03418-0.29688,0.05078-0.45312,0.05078
		c-0.22461,0-0.44238-0.04102-0.6543-0.12305s-0.3877-0.19922-0.52832-0.35059l0.47461-0.44434
		c0.08008,0.10449,0.18359,0.19043,0.31152,0.25781c0.12793,0.06836,0.27049,0.10254,0.42578,0.10254
		c0.05273,0,0.10547-0.00684,0.15918-0.01855c0.05469-0.01172,0.10449-0.03027,0.15039-0.05664s0.08301-0.06152,0.11133-0.10547
		c0.02734-0.04395,0.04199-0.09766,0.04199-0.16211c0-0.11914-0.05566-0.20508-0.16504-0.25781
		c-0.11035-0.05176-0.27539-0.10352-0.49512-0.15625c-0.1084-0.02344-0.21289-0.05469-0.31543-0.09277
		c-0.10156-0.03809-0.19238-0.08789-0.27246-0.14941c-0.08008-0.0625-0.14453-0.13965-0.19238-0.23145
		s-0.07227-0.20605-0.07227-0.3418c0-0.16016,0.0332-0.29785,0.09961-0.41406c0.06543-0.11621,0.15234-0.21094,0.26074-0.28516
		s0.22949-0.12891,0.36621-0.16504c0.13574-0.03613,0.27539-0.05371,0.41992-0.05371c0.20801,0,0.41113,0.03613,0.6084,0.10742
		c0.19824,0.07227,0.35547,0.18262,0.47168,0.33008L143.2014,43.82307z"/>
	<path fill="#1A8AB9" d="M143.99437,43.63166v-0.57617h0.50391v-0.83398h0.70801v0.83398h0.71973v0.57617h-0.71973v1.33789
		c0,0.12793,0.02246,0.2334,0.06836,0.31738s0.14941,0.12598,0.30957,0.12598c0.04785,0,0.09961-0.00488,0.15625-0.01465
		c0.05566-0.00977,0.10547-0.02441,0.14941-0.04492l0.02441,0.56445c-0.06445,0.02344-0.14062,0.04297-0.22852,0.05664
		s-0.17188,0.02051-0.25195,0.02051c-0.19141,0-0.34766-0.02637-0.46777-0.08105c-0.12012-0.05371-0.21484-0.12793-0.28516-0.22168
		s-0.11816-0.20215-0.14355-0.32422c-0.02637-0.12207-0.03906-0.25293-0.03906-0.39258v-1.34375H143.99437z"/>
	<path fill="#1A8AB9" d="M146.56859,43.05549h0.68945v0.47949h0.01172c0.08008-0.16797,0.19238-0.30371,0.33691-0.40723
		c0.14355-0.10449,0.31152-0.15625,0.50391-0.15625c0.02734,0,0.05762,0.00098,0.08984,0.00293s0.05957,0.00684,0.08398,0.01465
		v0.66016c-0.04785-0.01172-0.08887-0.01953-0.12305-0.02344s-0.06738-0.00684-0.09961-0.00684
		c-0.16406,0-0.2959,0.03027-0.39551,0.09082c-0.09961,0.05957-0.17773,0.13184-0.23438,0.21582
		c-0.05566,0.08398-0.09377,0.16992-0.11328,0.25781c-0.02051,0.08789-0.03027,0.1582-0.03027,0.20996v1.54199h-0.71973V43.05549z"
		/>
	<path fill="#1A8AB9" d="M150.58226,45.56916h-0.01758c-0.07227,0.12793-0.18848,0.2334-0.34863,0.31543
		s-0.3418,0.12305-0.5459,0.12305c-0.11621,0-0.2373-0.01562-0.36328-0.04492c-0.12598-0.03027-0.24121-0.08008-0.34766-0.15039
		c-0.10547-0.07031-0.19434-0.16211-0.26367-0.27637c-0.07031-0.11328-0.10547-0.25488-0.10547-0.42285
		c0-0.21582,0.06152-0.3877,0.18359-0.51562s0.27832-0.22559,0.4707-0.29395s0.40527-0.11328,0.63867-0.13477
		c0.23438-0.02246,0.46289-0.0332,0.6875-0.0332V44.0633c0-0.17969-0.06543-0.3125-0.19531-0.39941
		c-0.12988-0.08594-0.28516-0.12891-0.46484-0.12891c-0.15234,0-0.29785,0.03223-0.43848,0.09668
		c-0.13965,0.06348-0.25586,0.1416-0.34766,0.2334l-0.37207-0.4375c0.16406-0.15234,0.35352-0.2666,0.56738-0.3418
		c0.21387-0.07617,0.43066-0.11426,0.65039-0.11426c0.25586,0,0.46777,0.03613,0.63379,0.10742
		c0.16504,0.07227,0.29688,0.16602,0.39258,0.28223s0.16309,0.24609,0.20117,0.39062
		c0.03809,0.14355,0.05664,0.28711,0.05664,0.43164v1.75195h-0.67188V45.56916z M150.57054,44.62092h-0.16211
		c-0.11621,0-0.23828,0.00586-0.36621,0.01562s-0.24609,0.03223-0.35352,0.06543c-0.1084,0.03418-0.19824,0.08203-0.27051,0.14453
		c-0.07227,0.06152-0.10742,0.14648-0.10742,0.25488c0,0.06836,0.01465,0.125,0.04492,0.1709
		c0.0293,0.0459,0.06836,0.08301,0.11621,0.11133c0.04883,0.02734,0.10254,0.04785,0.16211,0.05957
		c0.06055,0.01172,0.12012,0.01855,0.18066,0.01855c0.24805,0,0.43555-0.06641,0.56348-0.19824s0.19238-0.3125,0.19238-0.54004
		V44.62092z"/>
	<path fill="#1A8AB9" d="M151.74046,43.63166v-0.57617h0.50391v-0.83398h0.70801v0.83398h0.71973v0.57617h-0.71973v1.33789
		c0,0.12793,0.02246,0.2334,0.06836,0.31738s0.14941,0.12598,0.30957,0.12598c0.04785,0,0.09961-0.00488,0.15625-0.01465
		c0.05566-0.00977,0.10547-0.02441,0.14941-0.04492l0.02441,0.56445c-0.06445,0.02344-0.14062,0.04297-0.22852,0.05664
		s-0.17188,0.02051-0.25195,0.02051c-0.19141,0-0.34766-0.02637-0.46777-0.08105c-0.12012-0.05371-0.21484-0.12793-0.28516-0.22168
		s-0.11816-0.20215-0.14355-0.32422c-0.02637-0.12207-0.03906-0.25293-0.03906-0.39258v-1.34375H151.74046z"/>
	<path fill="#1A8AB9" d="M154.14574,44.48323c0-0.22754,0.04102-0.43457,0.12305-0.62109
		c0.08203-0.18555,0.19336-0.34473,0.33301-0.47656s0.30566-0.23438,0.49805-0.30664
		c0.19238-0.07129,0.39551-0.10742,0.6123-0.10742c0.21484,0,0.41992,0.03613,0.61133,0.10742
		c0.19141,0.07227,0.35742,0.1748,0.49805,0.30664s0.25195,0.29102,0.33398,0.47656
		c0.08008,0.18652,0.12305,0.39355,0.12305,0.62109c0,0.22852-0.04297,0.43652-0.12305,0.62402
		c-0.08203,0.18848-0.19336,0.34961-0.33398,0.4834s-0.30664,0.23926-0.49805,0.31445
		c-0.19141,0.07617-0.39648,0.11426-0.61133,0.11426c-0.2168,0-0.41992-0.03809-0.6123-0.11426
		c-0.19238-0.0752-0.3584-0.18066-0.49805-0.31445s-0.25098-0.29492-0.33301-0.4834
		C154.18675,44.91975,154.14574,44.71174,154.14574,44.48323z M154.87816,44.48323c0,0.1123,0.0166,0.22461,0.05078,0.33594
		c0.03416,0.1123,0.08496,0.21191,0.15332,0.2998c0.06738,0.08887,0.15332,0.16016,0.25781,0.2168
		c0.10352,0.05566,0.22754,0.08398,0.37207,0.08398c0.14355,0,0.26758-0.02832,0.37109-0.08398
		c0.10352-0.05664,0.18945-0.12793,0.25781-0.2168c0.06836-0.08789,0.11914-0.1875,0.1543-0.2998
		c0.0332-0.11133,0.05078-0.22363,0.05078-0.33594c0-0.11133-0.01758-0.22266-0.05078-0.33301
		c-0.03516-0.10938-0.08594-0.20898-0.1543-0.29688s-0.1543-0.15918-0.25781-0.21289s-0.22754-0.08105-0.37109-0.08105
		c-0.14453,0-0.26855,0.02734-0.37207,0.08105c-0.10449,0.05371-0.19043,0.125-0.25781,0.21289
		c-0.06836,0.08789-0.11916,0.1875-0.15332,0.29688C154.89476,44.26057,154.87816,44.3719,154.87816,44.48323z"/>
	<path fill="#1A8AB9" d="M158.09398,43.05549h0.69043v0.47949h0.01172c0.08008-0.16797,0.19238-0.30371,0.33594-0.40723
		c0.14453-0.10449,0.3125-0.15625,0.50391-0.15625c0.02832,0,0.05859,0.00098,0.09082,0.00293
		c0.03125,0.00195,0.05957,0.00684,0.08398,0.01465v0.66016c-0.04883-0.01172-0.08984-0.01953-0.12305-0.02344
		c-0.03418-0.00391-0.06738-0.00684-0.09962-0.00684c-0.16405,0-0.29588,0.03027-0.39549,0.09082
		c-0.10059,0.05957-0.17871,0.13184-0.23438,0.21582s-0.09375,0.16992-0.11426,0.25781
		c-0.01953,0.08789-0.0293,0.1582-0.0293,0.20996v1.54199h-0.7207V43.05549z"/>
</g>
<path fill="#1A8AB9" d="M191.86742,12.95393c-9.55273,0-17.32422,7.77197-17.32422,17.32422
	c0,9.55273,7.77148,17.3252,17.32422,17.3252s17.3252-7.77246,17.3252-17.3252
	C209.19261,20.7259,201.42015,12.95393,191.86742,12.95393z M175.00237,30.19728c3.44897,0.07611,6.88739,2.664,9.28827,4.90857
	c-1.97504,1.3363-4.15472,2.92065-6.41296,4.58923c-1.81714-2.69122-2.87939-5.93219-2.87939-9.41693
	C174.99828,30.25087,175.00224,30.22456,175.00237,30.19728z M191.86742,47.14827c-5.05725,0-9.5899-2.24792-12.68439-5.78442
	c2.2843-1.65143,4.48834-3.24591,6.51379-4.68097c4.46191,4.44348,8.12122,9.46283,14.55914,6.73364
	c4.52075-1.91644,5.97717-6.32623,4.56537-9.65662c-1.19952-2.82947-7.13794-5.32916-16.47534-0.92059
	c-3.02734-4.32983-7.51276-7.79443-12.47723-7.87427c2.23267-6.7038,8.55438-11.55603,15.99866-11.55603
	c9.30273,0,16.87012,7.56738,16.87012,16.86914C208.73753,39.58088,201.17015,47.14827,191.86742,47.14827z M189.51646,34.44117
	c6.35736-3.17194,12.40442-3.68628,14.09149,0.2934c0.73413,1.73175-0.45197,5.04034-3.35022,6.26898
	C195.69322,42.93855,192.90977,39.28419,189.51646,34.44117z"/>
</svg>
