<svg xmlns="http://www.w3.org/2000/svg" viewBox="0 0 602 125.4"><defs><style>.cls-1{fill:#101d28;}.cls-2{fill:#e4003a;}</style></defs><g id="Ebene_2" data-name="Ebene 2"><g id="Ebene_1-2" data-name="Ebene 1"><path class="cls-1" d="M218.46,63.3c0,20.07-14.27,33-30.84,33-8,0-16.7-3.23-21-10v39.05H151V31.78h15.63v8.36c4.31-6.74,13.33-10,20.87-10,16.57,0,31,12.93,31,33.13m-15.62,0c0-10.37-8.09-18.58-17.78-18.58a18.52,18.52,0,0,0,0,37c9.69,0,17.78-8,17.78-18.46"/><path class="cls-1" d="M274.9,31.78h15.62V94.69H274.9V84.85c-4.17,6.87-12.52,11.45-21.55,11.45C236.51,96.3,223,82.69,223,63.17c0-19,12.93-33,30.71-33,8.63,0,17,3.77,21.15,10.37Zm-.27,31.39c0-17.36-23.07-26.69-33.74-8.8a14.67,14.67,0,0,0-1.6,3.81c-3,12.13,5.4,23.57,17.3,23.57a18.34,18.34,0,0,0,18-18.58"/><path class="cls-1" d="M342,32.32,338.9,47.14a19.79,19.79,0,0,0-9.16-2.29c-10.25,0-15.9,10.24-15.9,27.89v22H298.08V31.79h15.63V45.26c3.36-10.51,10.23-15.09,18-15.09,3.78,0,7.82.8,10.24,2.15"/><path class="cls-1" d="M345.63,3.49A6,6,0,0,1,348,1.43c8.14-3.95,16,.77,16,8.13,0,5.39-4.44,9.56-10.1,9.56-7.49,0-13.49-7.68-8.28-15.63m.47,28.29h15.62v62.9H346.1Z"/><polygon class="cls-1" points="407.27 31.79 407.27 44.18 393.93 44.18 393.93 94.69 378.31 94.69 378.31 44.18 367 44.18 367 31.79 378.31 31.79 378.31 8.62 393.93 8.62 393.93 31.79 407.27 31.79"/><polygon class="cls-1" points="457.81 31.79 474.65 31.79 435.59 125.4 419.15 125.4 433.29 90.24 408.24 31.79 425.35 31.79 441.65 71.65 457.81 31.79"/><path class="cls-2" d="M481.3,63.44c0-14,10.78-25.06,24-25.06A24.19,24.19,0,0,1,529.66,63c0,15.23-11.86,25.06-24.38,25.06-13.2,0-24-10.78-24-24.65m-8.62-.14c0,19.13,14.28,33,31.92,33,10.64,0,20.34-5.11,25.06-13.73v42.69h8.61V31.78h-8.61V44c-4.72-8.62-14.55-13.87-25.06-13.87-17.51,0-31.92,14-31.92,33.13M546,63.17c0,19.94,15.35,33.13,33.4,33.13A32.72,32.72,0,0,0,602,87.68l-5.39-5.92a25.56,25.56,0,0,1-17,6.33c-13.87,0-25-10.24-25-24.92s11.18-24.79,25-24.79a25.32,25.32,0,0,1,17,6.34l5.25-5.93a32.76,32.76,0,0,0-22.49-8.62c-18,0-33.4,13.07-33.4,33"/><path class="cls-2" d="M0,74l28.26,28.26L56.52,74,28.26,45.75Zm74.33,0,28.26,28.26L130.86,74,102.59,45.75ZM37.16,36.85,65.43,65.1,93.69,36.85,65.43,8.58Z"/></g></g></svg>
